<svg width="216" height="216" viewBox="0 0 216 216" fill="none" xmlns="http://www.w3.org/2000/svg">
<g clip-path="url(#clip0_165_4)">
<path d="M150.2 104.8C154.8 99.5 157.4 93.3001 157.4 86.6001C157.4 61.7001 138.7 43.3 98.7 43.3C75.8 43.3 58.7 50.0001 58.7 50.0001L64.7 66.0001C64.7 66.0001 77 59.3 98.7 59.3C120.4 59.3 141.4 65.5001 141.4 86.6001C141.4 89.8001 140.6 92.4001 139.1 94.6001C122.8 82.1001 101.8 74.6001 85.4 74.6001C76.1 74.6001 62.1 79.3001 62.1 92.6001C62.1 113.9 94.8 119.9 112.1 119.9C121.8 119.9 130.5 117.8 137.7 114.3C144.3 121.5 148.8 130.3 148.8 140.6C148.8 156.4 132.1 159.9 122.8 159.9C97.5 159.9 82.8 142.8 78.1 132.6L62.8 136.6V172.6H78.8V159.3C78.8 159.3 94.9 176.6 122.8 176.6C149.5 176.6 165.5 160.9 165.5 140.6C165.4 127.1 159.4 114.9 150.2 104.8ZM78.8 94.0001C78.8 87.3001 103.7 90.6001 123.8 103.1C105.2 106.6 78.8 99.9001 78.8 94.0001ZM177.7 58.2001C177.7 51.6001 182.7 46.6001 189.3 46.6001C195.9 46.6001 200.9 51.6001 200.9 58.2001C200.9 64.6001 195.9 69.8 189.3 69.8C182.7 69.7 177.7 64.6001 177.7 58.2001ZM180.9 172.6V83.7001H197.4V172.6H180.9ZM232.6 158.4H285.4V172.6H212.9V158.4L262.7 98.1001H216.3V83.7001H283.7V96.7001L232.6 158.4ZM315 158.4H367.8V172.6H295.3V158.4L345.1 98.1001H298.7V83.7001H366V96.7001L315 158.4ZM455.5 122V172.7H439.9V157C433.5 168.4 422.5 175 408.1 175C389.8 175 377.5 164.3 377.5 148.5C377.5 130.7 393.1 119.7 417.9 119.7C425 119.7 432.5 120.6 439 122.4V122C439 107.1 433.9 96.2001 418.2 96.2001C406.1 96.2001 398.5 102.6 401.1 114.3H383.9C379.1 95.1 395.6 81.4001 418.4 81.4001C443.2 81.4001 455.5 97.6001 455.5 122ZM439.5 136C433.5 134 426 133 419.1 133C403.3 133 394.6 139.2 394.6 148.6C394.6 156.4 400.6 160.9 410.6 160.9C425.1 160.9 437 151.3 439.5 136ZM561.6 128.2C561.6 156.3 544.7 174.9 521.2 174.9C507.7 174.9 497.2 168.9 490.6 158.4V172.6H474.1V48.2001H490.6V98.0001C497.2 87.5001 507.7 81.5001 521.2 81.5001C544.9 81.4001 561.6 100.3 561.6 128.2ZM544.2 128.2C544.2 108.8 533.3 96.2001 517.3 96.2001C500.9 96.2001 490.1 109.2 490.1 128.2C490.1 147.2 501 160.2 517.1 160.2C533.5 160.2 544.2 147.2 544.2 128.2ZM570.9 128.2C570.9 100.3 588.5 81.5001 614.8 81.5001C641.1 81.5001 658.7 100.4 658.7 128.2C658.7 156.1 641.1 174.9 614.8 174.9C588.5 174.9 570.9 156.1 570.9 128.2ZM641.3 128.2C641.3 109 630.8 96.2001 614.8 96.2001C599 96.2001 588.3 109 588.3 128.2C588.3 147.2 599 160.2 614.8 160.2C630.8 160.2 641.3 147.2 641.3 128.2Z" fill="#1A1A1A"/>
</g>
<defs>
<clipPath id="clip0_165_4">
<rect width="133" height="170" fill="white" transform="translate(42 23)"/>
</clipPath>
</defs>
</svg>
