<svg width="18" height="20" viewBox="0 0 18 20" fill="none" xmlns="http://www.w3.org/2000/svg">
<path d="M17.9108 8.70954C16.8167 8.2575 15.6693 7.9505 14.4972 7.79619C13.6412 7.65892 12.6339 7.52165 11.7831 7.41078C12.6025 6.23873 15.0296 3.27165 15.4367 2.54835C15.5516 2.35301 15.3324 2.07848 15.1706 1.91482C14.2624 0.932827 12.5086 0.563261 11.162 0.352081C10.3895 0.225373 7.1638 -0.175869 6.61575 0.0881063C5.95809 0.404877 1.09348 7.79618 0.947337 8.92072C0.947337 9.11078 1.00997 9.1847 1.19266 9.25333C1.95993 9.53842 5.42047 9.9819 6.19296 10.1667C5.14905 12.0145 0.508898 18.2602 0.0547989 19.1418C-0.0548112 19.3636 0.0130379 19.4956 0.143526 19.5378C0.613246 19.7264 1.09661 19.8782 1.58934 19.9918C1.77724 20.0499 2.18959 19.7912 2.78983 19.4217C5.48311 17.785 17.0392 10.0664 17.9265 9.06855C17.951 9.04513 17.9702 9.01666 17.9828 8.98506C17.9955 8.95346 18.0013 8.91948 17.9998 8.88542C17.9983 8.85137 17.9896 8.81803 17.9742 8.78769C17.9589 8.75734 17.9373 8.73069 17.9108 8.70954ZM6.69404 15.045C2.25744 18.0068 0.759436 18.8726 0.70724 18.9096C1.42232 17.8061 5.86413 11.6502 6.62618 10.1772C6.63945 10.1488 6.64627 10.1177 6.64614 10.0862C6.64601 10.0548 6.63893 10.0238 6.62542 9.99543C6.61192 9.96709 6.59232 9.94216 6.56807 9.92247C6.54382 9.90278 6.51553 9.88881 6.48526 9.88159C5.96331 9.69153 2.16349 9.27973 1.26573 8.95768C1.38056 7.97569 6.11989 0.552702 6.69404 0.257049C7.26819 -0.038603 12.8374 0.631894 13.8813 1.38686C13.3333 2.46916 10.306 6.25985 9.81531 7.14153C9.71614 7.32103 9.68483 7.49525 9.87796 7.54277C10.0711 7.59028 14.9774 8.17103 16.0474 8.52476C14.7426 9.62817 8.15551 14.0524 6.69404 15.0238V15.045Z" fill="#EF4444"/>
</svg>
