<svg width="104" height="115" viewBox="0 0 104 115" fill="none" xmlns="http://www.w3.org/2000/svg">
<g opacity="0.5">
<path d="M98.1413 62.4357C99.3809 61.4755 99.6075 59.6921 98.6473 58.4524C97.6871 57.2128 95.9037 56.9862 94.664 57.9464L96.4026 60.191L98.1413 62.4357ZM20.3682 89.6734C21.8381 90.2196 23.4724 89.4707 24.0185 88.0008C24.5646 86.5309 23.8158 84.8966 22.3459 84.3505L21.357 87.012L20.3682 89.6734ZM33.5472 88.1051C32.0424 87.6642 30.4651 88.5267 30.0243 90.0316C29.5834 91.5364 30.4459 93.1136 31.9507 93.5545L32.749 90.8298L33.5472 88.1051ZM43.9386 96.3431C45.4869 96.5914 46.9433 95.5375 47.1916 93.9892C47.4399 92.441 46.386 90.9846 44.8378 90.7363L44.3882 93.5397L43.9386 96.3431ZM56.0177 91.2655C54.4573 91.4203 53.3178 92.8106 53.4725 94.371C53.6273 95.9314 55.0176 97.071 56.578 96.9163L56.2979 94.0909L56.0177 91.2655ZM69.0735 92.7782C70.4024 91.946 70.8051 90.1939 69.9728 88.865C69.1405 87.536 67.3885 87.1334 66.0595 87.9657L67.5665 90.3719L69.0735 92.7782ZM74.1395 80.4602C73.1341 81.6635 73.2945 83.454 74.4979 84.4594C75.7012 85.4648 77.4917 85.3044 78.4971 84.101L76.3183 82.2806L74.1395 80.4602ZM85.957 74.6815C86.9439 73.463 86.7561 71.6751 85.5375 70.6882C84.319 69.7013 82.5311 69.8891 81.5442 71.1077L83.7506 72.8946L85.957 74.6815ZM89.907 61.9986C88.7609 63.0687 88.6993 64.8654 89.7695 66.0115C90.8396 67.1576 92.6362 67.2191 93.7824 66.149L91.8447 64.0738L89.907 61.9986ZM15.7689 84.8548L14.7153 87.4912C16.665 88.2704 18.5483 88.9973 20.3682 89.6734L21.357 87.012L22.3459 84.3505C20.5722 83.6915 18.7322 82.9815 16.8226 82.2183L15.7689 84.8548ZM32.749 90.8298L31.9507 93.5545C36.3634 94.8472 40.3363 95.7654 43.9386 96.3431L44.3882 93.5397L44.8378 90.7363C41.5151 90.2034 37.7783 89.3446 33.5472 88.1051L32.749 90.8298ZM56.2979 94.0909L56.578 96.9163C61.5525 96.423 65.5892 94.9603 69.0735 92.7782L67.5665 90.3719L66.0595 87.9657C63.3341 89.6725 60.1402 90.8568 56.0177 91.2655L56.2979 94.0909ZM76.3183 82.2806L78.4971 84.101C80.856 81.2778 83.4575 77.7677 85.957 74.6815L83.7506 72.8946L81.5442 71.1077C78.6909 74.6308 76.5895 77.5279 74.1395 80.4602L76.3183 82.2806ZM91.8447 64.0738L93.7824 66.149C95.1306 64.8901 96.5758 63.6482 98.1413 62.4357L96.4026 60.191L94.664 57.9464C92.9515 59.2729 91.3738 60.6289 89.907 61.9986L91.8447 64.0738Z" fill="#F2E6E3"/>
<path d="M94.5376 53.8485L95.0678 53.1575C84.3216 45.0647 80.4443 38.6315 76.3399 31.8202C71.3613 23.559 65.7178 14.1956 46.8677 -4.14675e-06L46.3375 0.691057C65.0527 14.785 70.6495 24.0713 75.5881 32.2657C79.7379 39.1506 83.6564 45.6542 94.5385 53.8492L94.5376 53.8485Z" fill="#FFF000"/>
<g opacity="0.4" filter="url(#filter0_f_779_2618)">
<path d="M54.2847 6.77743C53.4799 7.82648 53.6867 9.3241 54.7446 10.1208C55.8026 10.9175 57.315 10.7132 58.1191 9.66503C58.9233 8.61681 58.7172 7.11835 57.6592 6.32164C56.6013 5.52494 55.0889 5.72921 54.2847 6.77743Z" fill="#FFF000"/>
</g>
<path d="M55.0976 7.39001C54.6331 7.99552 54.7526 8.85868 55.3629 9.31828C55.9732 9.77787 56.8452 9.66008 57.3091 9.0554C57.7729 8.45072 57.6541 7.58674 57.0438 7.12715C56.4335 6.66756 55.5615 6.78534 55.0976 7.39001Z" fill="#FFF000"/>
<path d="M73.0296 64.0185C74.9735 64.0185 76.9249 63.8889 78.8713 63.6272L93.7687 60.2673L92.9054 54.585L78.0213 57.4537C69.0865 58.6575 60.0336 56.5914 52.5297 51.6366L35.5781 40.4412C27.2167 34.9182 16.2903 35.3444 8.38913 41.4979L7.42857e-05 48.0352L3.88529 52.9327L12.2744 46.3953C18.033 41.9091 25.9971 41.6001 32.0902 45.6252L49.0418 56.8207C56.1861 61.5386 64.5324 64.0185 73.0246 64.0185" fill="#C8BEFF"/>
<g filter="url(#filter1_n_779_2618)" data-figma-bg-blur-radius="8.44512">
<path d="M51.2733 58.1962C57.8971 62.0194 65.4035 64.0182 73.0306 64.0182C73.3173 64.0182 73.6064 64.0157 73.8931 64.0108C72.0348 68.0907 67.8955 70.9319 63.0849 70.9319C56.5391 70.9319 51.2331 65.6731 51.2331 59.1856C51.2331 58.8517 51.2482 58.5227 51.2733 58.1987M63.0824 47.4393C69.1353 47.4393 74.127 51.9355 74.8462 57.7426C74.2401 57.7725 73.6366 57.7874 73.0331 57.7874C66.1579 57.7874 59.3958 55.8883 53.5089 52.2595C55.664 49.3385 59.1494 47.4393 63.0824 47.4393Z" fill="#FFB4B4" fill-opacity="0.48"/>
</g>
<path d="M53.51 52.2592C59.3944 55.8855 66.1565 57.7872 73.0342 57.7872C73.6377 57.7872 74.2412 57.7722 74.8473 57.7423C74.9051 58.2159 74.9353 58.6969 74.9353 59.1854C74.9353 60.9051 74.5631 62.5375 73.8917 64.0105C73.605 64.0155 73.3158 64.018 73.0292 64.018C65.4046 64.018 57.8982 62.0191 51.2719 58.1959C51.458 55.9877 52.2602 53.9515 53.51 52.2592Z" fill="#FFB4B4"/>
<path d="M71.1463 81.2992C74.2207 75.8792 77.2349 71.567 81.7595 68.3055C85.6417 65.5076 90.5793 63.0278 95.9816 61.4007L94.6781 58.8575C88.947 60.5837 84.1397 62.8793 79.9804 65.8768C75.0909 69.401 71.8044 74.0166 68.5092 79.8266L70.6204 81.0298L71.1463 81.2992Z" fill="#1784FF"/>
<path d="M36.938 113.411C42.7543 112.448 51.6026 106.58 56.4739 102.578C60.7473 98.8583 63.0936 94.9182 65.8731 90.1662C66.7326 88.6972 66.6212 88.7936 67.5406 87.3003L64.9578 85.7366C64.0219 87.2587 64.124 87.1763 63.2563 88.6601C57.8701 97.8699 40.7754 110.796 28.6527 111.921L30.2225 113.757L36.938 113.411Z" fill="#1784FF"/>
<path d="M94.1547 56.7808C88.2546 56.7808 83.1083 55.1084 78.4219 51.6677C74.2883 48.6335 70.9526 44.6344 67.4206 40.4008C66.3285 39.0921 65.2 37.7379 64.0447 36.415L66.3342 34.451C67.5106 35.7996 68.6506 37.1662 69.7532 38.4881C76.598 46.6933 82.7249 54.0477 94.369 54.0477L94.1538 56.7817L94.1547 56.7808Z" fill="url(#paint0_linear_779_2618)"/>
<path d="M56.9498 28.7096C52.5756 24.2517 48.1069 21.2424 42.8877 19.2395C38.4098 17.5214 31.3365 16.5895 25.691 16.3894L25.7992 13.3894C31.7884 13.6017 39.1834 14.5991 43.9808 16.4398C49.6207 18.6039 54.4312 21.8372 59.1198 26.6161L56.9498 28.7087L56.9498 28.7096Z" fill="url(#paint1_linear_779_2618)"/>
<path d="M61.6314 27.8806C61.6818 27.4509 62.3055 27.4509 62.3559 27.8806C62.5448 29.4911 63.7743 30.7836 65.3734 31.0526L65.5082 31.0753C65.9341 31.1469 65.9341 31.7589 65.5082 31.8306L65.3734 31.8532C63.7743 32.1222 62.5448 33.4147 62.3559 35.0253C62.3055 35.4549 61.6818 35.4549 61.6314 35.0253C61.4425 33.4147 60.213 32.1222 58.6139 31.8532L58.4791 31.8306C58.0532 31.7589 58.0532 31.1469 58.4791 31.0753L58.6139 31.0526C60.213 30.7836 61.4425 29.4911 61.6314 27.8806Z" fill="url(#paint2_linear_779_2618)"/>
</g>
<defs>
<filter id="filter0_f_779_2618" x="52.6583" y="4.69998" width="7.08705" height="7.04252" filterUnits="userSpaceOnUse" color-interpolation-filters="sRGB">
<feFlood flood-opacity="0" result="BackgroundImageFix"/>
<feBlend mode="normal" in="SourceGraphic" in2="BackgroundImageFix" result="shape"/>
<feGaussianBlur stdDeviation="0.567843" result="effect1_foregroundBlur_779_2618"/>
</filter>
<filter id="filter1_n_779_2618" x="42.788" y="38.9942" width="40.5033" height="40.3829" filterUnits="userSpaceOnUse" color-interpolation-filters="sRGB">
<feFlood flood-opacity="0" result="BackgroundImageFix"/>
<feBlend mode="normal" in="SourceGraphic" in2="BackgroundImageFix" result="shape"/>
<feTurbulence type="fractalNoise" baseFrequency="1.4209387302398682 1.4209387302398682" stitchTiles="stitch" numOctaves="3" result="noise" seed="5346"/>
<feColorMatrix in="noise" type="luminanceToAlpha" result="alphaNoise"/>
<feComponentTransfer in="alphaNoise" result="coloredNoise1">
<feFuncA type="discrete" tableValues="1 1 1 1 1 1 1 1 1 1 1 1 1 1 1 1 1 1 1 1 1 1 1 1 1 1 1 1 1 1 1 1 1 1 1 1 1 1 1 1 1 1 1 1 1 1 1 1 1 1 1 0 0 0 0 0 0 0 0 0 0 0 0 0 0 0 0 0 0 0 0 0 0 0 0 0 0 0 0 0 0 0 0 0 0 0 0 0 0 0 0 0 0 0 0 0 0 0 0 0"/>
</feComponentTransfer>
<feComposite operator="in" in2="shape" in="coloredNoise1" result="noise1Clipped"/>
<feFlood flood-color="rgba(140, 120, 255, 0.2)" result="color1Flood"/>
<feComposite operator="in" in2="noise1Clipped" in="color1Flood" result="color1"/>
<feMerge result="effect1_noise_779_2618">
<feMergeNode in="shape"/>
<feMergeNode in="color1"/>
</feMerge>
</filter>
<linearGradient id="paint0_linear_779_2618" x1="68.9747" y1="35.1891" x2="94.9667" y2="57.0391" gradientUnits="userSpaceOnUse">
<stop stop-color="#83C8FF"/>
<stop offset="1" stop-color="#005499"/>
</linearGradient>
<linearGradient id="paint1_linear_779_2618" x1="43.7539" y1="13.9496" x2="59.4016" y2="31" gradientUnits="userSpaceOnUse">
<stop stop-color="#008CFF"/>
<stop offset="1" stop-color="#A5D7FF"/>
</linearGradient>
<linearGradient id="paint2_linear_779_2618" x1="61.9937" y1="25.7434" x2="61.9937" y2="37.1624" gradientUnits="userSpaceOnUse">
<stop stop-color="#008CFF"/>
<stop offset="0.22" stop-color="#CFEAFF"/>
<stop offset="1" stop-color="#008CFF"/>
</linearGradient>
</defs>
</svg>
