<svg width="22" height="20" viewBox="0 0 22 20" fill="none" xmlns="http://www.w3.org/2000/svg">
<path opacity="0.15" d="M10.5576 19.3424C10.5576 19.1142 9.2 18.929 7.52539 18.929C5.85077 18.929 4.49316 19.1142 4.49316 19.3424C4.49316 19.5707 5.85077 19.7559 7.52539 19.7559C9.2 19.7559 10.5576 19.5707 10.5576 19.3424Z" fill="#45413C"/>
<path d="M10.7156 10.7128L7.7845 4.85071C7.76042 4.80253 7.72339 4.76201 7.67758 4.73369C7.63176 4.70537 7.57897 4.69037 7.52511 4.69037C7.47124 4.69037 7.41845 4.70537 7.37263 4.73369C7.32682 4.76201 7.28979 4.80253 7.26571 4.85071L4.33465 10.7128L0.618249 7.49177C0.572589 7.45206 0.515648 7.42762 0.455405 7.42189C0.395161 7.41615 0.334633 7.42941 0.282302 7.4598C0.22997 7.49019 0.188457 7.53619 0.163578 7.59136C0.1387 7.64652 0.131703 7.70809 0.143568 7.76743L1.72418 15.9349C1.72418 15.9349 1.72418 17.3851 7.52511 17.3851C13.326 17.3851 13.326 15.9349 13.326 15.9349L14.9066 7.76743C14.9185 7.70809 14.9115 7.64652 14.8866 7.59136C14.8618 7.53619 14.8202 7.49019 14.7679 7.4598C14.7156 7.42941 14.6551 7.41615 14.5948 7.42189C14.5346 7.42762 14.4776 7.45206 14.432 7.49177L10.7156 10.7128Z" fill="#FFE500"/>
<path d="M10.7156 10.7128L7.7845 4.85071C7.76042 4.80253 7.72339 4.76201 7.67758 4.73369C7.63176 4.70537 7.57897 4.69037 7.52511 4.69037C7.47124 4.69037 7.41845 4.70537 7.37263 4.73369C7.32682 4.76201 7.28979 4.80253 7.26571 4.85071L4.33465 10.7128L0.618249 7.49177C0.572589 7.45206 0.515648 7.42762 0.455405 7.42189C0.395161 7.41615 0.334633 7.42941 0.282302 7.4598C0.22997 7.49019 0.188457 7.53619 0.163578 7.59136C0.1387 7.64652 0.131703 7.70809 0.143568 7.76743L1.72418 15.9349C1.72418 15.9349 1.72418 17.3851 7.52511 17.3851C13.326 17.3851 13.326 15.9349 13.326 15.9349L14.9066 7.76743C14.9185 7.70809 14.9115 7.64652 14.8866 7.59136C14.8618 7.53619 14.8202 7.49019 14.7679 7.4598C14.7156 7.42941 14.6551 7.41615 14.5948 7.42189C14.5346 7.42762 14.4776 7.45206 14.432 7.49177L10.7156 10.7128Z" fill="#FFE500"/>
<path d="M14.7672 7.4598C14.7149 7.42962 14.6545 7.41648 14.5945 7.42221C14.5344 7.42795 14.4776 7.45226 14.432 7.49177L10.7156 10.7128L7.7845 4.85071C7.76042 4.80253 7.72339 4.76201 7.67758 4.73369C7.63176 4.70537 7.57897 4.69037 7.52511 4.69037C7.47124 4.69037 7.41845 4.70537 7.37263 4.73369C7.32682 4.76201 7.28979 4.80253 7.26571 4.85071L4.33465 10.7128L0.618249 7.49177C0.572589 7.45206 0.515648 7.42762 0.455405 7.42189C0.395161 7.41615 0.334633 7.42941 0.282302 7.4598C0.22997 7.49019 0.188457 7.53619 0.163578 7.59136C0.1387 7.64652 0.131703 7.70809 0.143568 7.76743L1.72418 15.9349C1.72418 15.9349 1.72418 17.3851 7.52511 17.3851C13.326 17.3851 13.3258 15.9349 13.3258 15.9349L14.9066 7.76743C14.9184 7.70801 14.9113 7.64639 14.8863 7.59121C14.8613 7.53604 14.8196 7.49008 14.7672 7.4598V7.4598ZM12.4472 15.6846C12.2716 15.8365 11.3096 16.4735 7.52511 16.4735C3.74061 16.4735 2.7783 15.8365 2.60298 15.6846L1.50283 10.0005C1.49391 9.95408 1.49967 9.90601 1.51932 9.86298C1.53897 9.81996 1.57153 9.78412 1.61248 9.76045C1.65343 9.73678 1.70073 9.72645 1.74782 9.73089C1.79491 9.73533 1.83944 9.75433 1.87524 9.78524L4.40274 11.9759C4.42895 11.9986 4.46001 12.0151 4.49355 12.024C4.52709 12.0328 4.56222 12.0339 4.59625 12.0271C4.63028 12.0204 4.6623 12.0059 4.68987 11.9848C4.71744 11.9637 4.73982 11.9366 4.75531 11.9056L7.32167 6.77369C7.34055 6.7359 7.36959 6.70412 7.40552 6.6819C7.44145 6.65969 7.48286 6.64792 7.52511 6.64792C7.56735 6.64792 7.60876 6.65969 7.64469 6.6819C7.68062 6.70412 7.70966 6.7359 7.72854 6.77369L10.2946 11.9059C10.3102 11.9369 10.3326 11.9639 10.3602 11.9849C10.3878 12.0059 10.4198 12.0203 10.4538 12.0271C10.4878 12.0338 10.5229 12.0327 10.5564 12.0239C10.5899 12.015 10.621 11.9986 10.6472 11.9759L13.175 9.78551C13.2107 9.75454 13.2553 9.73548 13.3024 9.73101C13.3495 9.72654 13.3968 9.73687 13.4377 9.76056C13.4787 9.78425 13.5112 9.82013 13.5308 9.86319C13.5504 9.90625 13.5561 9.95436 13.5471 10.0008L12.4472 15.6846Z" fill="#FFF48C"/>
<path d="M1.47559 14.6482L1.72368 15.9336C1.72368 15.9336 1.72368 17.3838 7.5246 17.3838C13.3255 17.3838 13.3255 15.9336 13.3255 15.9336L13.5736 14.6482C13.0168 15.0735 11.5244 15.6433 7.52405 15.6433C3.52372 15.6433 2.03241 15.0735 1.47559 14.6482Z" fill="#EBCB00"/>
<path d="M2.49478 15.1245C2.12973 15.0262 1.78459 14.865 1.47485 14.6482L1.72294 15.9336C1.72294 15.9336 1.72294 16.4394 2.91764 16.8534L2.49478 15.1245Z" fill="#FFE500"/>
<path d="M12.3132 16.7862C13.3263 16.3865 13.3263 15.9336 13.3263 15.9336L13.5744 14.6482C13.2901 14.8489 12.9744 15.0009 12.6402 15.0978L12.3132 16.7862Z" fill="#FFE500"/>
<path d="M1.47559 14.6482C2.03241 15.0735 3.52482 15.6436 7.52515 15.6436C11.5255 15.6436 13.0179 15.0735 13.5747 14.6482" stroke="#45413C" stroke-width="0.275657" stroke-linecap="round" stroke-linejoin="round"/>
<path d="M10.7156 10.7128L7.7845 4.85071C7.76042 4.80253 7.72339 4.76201 7.67758 4.73369C7.63176 4.70537 7.57897 4.69037 7.52511 4.69037C7.47124 4.69037 7.41845 4.70537 7.37263 4.73369C7.32682 4.76201 7.28979 4.80253 7.26571 4.85071L4.33465 10.7128L0.618249 7.49177C0.572589 7.45206 0.515648 7.42762 0.455405 7.42189C0.395161 7.41615 0.334633 7.42941 0.282302 7.4598C0.22997 7.49019 0.188457 7.53619 0.163578 7.59136C0.1387 7.64652 0.131703 7.70809 0.143568 7.76743L1.72418 15.9349C1.72418 15.9349 1.72418 17.3851 7.52511 17.3851C13.326 17.3851 13.326 15.9349 13.326 15.9349L14.9066 7.76743C14.9185 7.70809 14.9115 7.64652 14.8866 7.59136C14.8618 7.53619 14.8202 7.49019 14.7679 7.4598C14.7156 7.42941 14.6551 7.41615 14.5948 7.42189C14.5346 7.42762 14.4776 7.45206 14.432 7.49177L10.7156 10.7128Z" stroke="#45413C" stroke-width="0.275657" stroke-linecap="round" stroke-linejoin="round"/>
<path d="M13.0048 3.68989C13.0418 3.52919 13.1233 3.38214 13.2399 3.26551C13.3564 3.14888 13.5035 3.06736 13.6641 3.03024L14.9873 2.72481C15.0114 2.71904 15.0328 2.70532 15.0482 2.68587C15.0635 2.66641 15.0719 2.64236 15.0719 2.61758C15.0719 2.5928 15.0635 2.56875 15.0482 2.54929C15.0328 2.52984 15.0114 2.51612 14.9873 2.51035L13.6641 2.20492C13.5035 2.16785 13.3564 2.08637 13.2398 1.96979C13.1232 1.85322 13.0416 1.70622 13.0045 1.54555L12.6991 0.2224C12.6933 0.198303 12.6796 0.176853 12.6601 0.161508C12.6407 0.146163 12.6166 0.137817 12.5918 0.137817C12.567 0.137817 12.543 0.146163 12.5235 0.161508C12.5041 0.176853 12.4904 0.198303 12.4846 0.2224L12.1794 1.54555C12.1423 1.70627 12.0608 1.85332 11.9442 1.96996C11.8276 2.08659 11.6805 2.1681 11.5198 2.2052L10.1966 2.51035C10.1725 2.51612 10.1511 2.52984 10.1358 2.54929C10.1204 2.56875 10.1121 2.5928 10.1121 2.61758C10.1121 2.64236 10.1204 2.66641 10.1358 2.68587C10.1511 2.70532 10.1725 2.71904 10.1966 2.72481L11.5198 3.03024C11.6805 3.06734 11.8276 3.14885 11.9442 3.26548C12.0608 3.38211 12.1423 3.52917 12.1794 3.68989L12.4846 5.01304C12.4904 5.03714 12.5041 5.05859 12.5235 5.07393C12.543 5.08928 12.567 5.09762 12.5918 5.09762C12.6166 5.09762 12.6407 5.08928 12.6601 5.07393C12.6796 5.05859 12.6933 5.03714 12.6991 5.01304L13.0048 3.68989Z" fill="#FFF48C" stroke="#B58B00" stroke-width="0.275657" stroke-linecap="round" stroke-linejoin="round"/>
<path d="M2.63282 4.96098C2.66224 4.83336 2.72695 4.71658 2.81956 4.62397C2.91217 4.53136 3.02895 4.46665 3.15657 4.43723L4.20654 4.19493C4.2259 4.19064 4.24321 4.17987 4.25562 4.16441C4.26802 4.14894 4.27479 4.12971 4.27479 4.10989C4.27479 4.09006 4.26802 4.07083 4.25562 4.05537C4.24321 4.03991 4.2259 4.02914 4.20654 4.02485L3.15629 3.78255C3.02866 3.75316 2.91186 3.68846 2.81925 3.59584C2.72663 3.50323 2.66193 3.38643 2.63254 3.2588L2.39052 2.20937C2.38599 2.19022 2.37513 2.17316 2.3597 2.16094C2.34426 2.14873 2.32516 2.14209 2.30548 2.14209C2.2858 2.14209 2.26669 2.14873 2.25126 2.16094C2.23582 2.17316 2.22496 2.19022 2.22044 2.20937L1.97814 3.25907C1.94886 3.38677 1.88421 3.50363 1.79157 3.59626C1.69894 3.68889 1.58208 3.75355 1.45439 3.78282L0.404686 4.02512C0.385533 4.02965 0.368469 4.04051 0.356258 4.05595C0.344046 4.07138 0.337402 4.09048 0.337402 4.11016C0.337402 4.12985 0.344046 4.14895 0.356258 4.16438C0.368469 4.17982 0.385533 4.19068 0.404686 4.1952L1.45439 4.43751C1.58204 4.46687 1.69885 4.53156 1.79147 4.62417C1.88409 4.71679 1.94877 4.83361 1.97814 4.96125L2.22044 6.01151C2.22473 6.03086 2.2355 6.04817 2.25096 6.06058C2.26642 6.07299 2.28565 6.07975 2.30548 6.07975C2.3253 6.07975 2.34453 6.07299 2.36 6.06058C2.37546 6.04817 2.38622 6.03086 2.39052 6.01151L2.63282 4.96098Z" fill="#FFF48C" stroke="#B58B00" stroke-width="0.275657" stroke-linecap="round" stroke-linejoin="round"/>
<path d="M19.6451 11.3975C19.669 11.2947 19.7213 11.2006 19.796 11.126C19.8707 11.0513 19.9648 10.9991 20.0676 10.9752L20.918 10.779C20.9335 10.7753 20.9474 10.7665 20.9572 10.754C20.9671 10.7415 20.9725 10.726 20.9725 10.7101C20.9725 10.6941 20.9671 10.6787 20.9572 10.6661C20.9474 10.6536 20.9335 10.6448 20.918 10.6411L20.0676 10.4438C19.9644 10.4199 19.87 10.3675 19.795 10.2926C19.7201 10.2177 19.6676 10.1233 19.6437 10.0201L19.4477 9.16996C19.444 9.15446 19.4352 9.14066 19.4227 9.13079C19.4102 9.12091 19.3947 9.11554 19.3788 9.11554C19.3628 9.11554 19.3474 9.12091 19.3349 9.13079C19.3224 9.14066 19.3136 9.15446 19.3099 9.16996L19.1139 10.0201C19.09 10.1233 19.0375 10.2178 18.9626 10.2927C18.8876 10.3676 18.7932 10.4199 18.6899 10.4438L17.8401 10.6398C17.8246 10.6435 17.8108 10.6523 17.8009 10.6648C17.791 10.6773 17.7856 10.6927 17.7856 10.7087C17.7856 10.7246 17.791 10.7401 17.8009 10.7526C17.8108 10.7651 17.8246 10.7739 17.8401 10.7776L18.6899 10.9739C18.7932 10.9977 18.8876 11.05 18.9625 11.1249C19.0375 11.1998 19.0898 11.2943 19.1136 11.3975L19.3099 12.2479C19.3136 12.2634 19.3224 12.2772 19.3349 12.2871C19.3474 12.297 19.3628 12.3024 19.3788 12.3024C19.3947 12.3024 19.4102 12.297 19.4227 12.2871C19.4352 12.2772 19.444 12.2634 19.4477 12.2479L19.6451 11.3975Z" fill="#FFF48C" stroke="#B58B00" stroke-width="0.275657" stroke-linecap="round" stroke-linejoin="round"/>
</svg>
