<svg width="99" height="106" viewBox="0 0 99 106" fill="none" xmlns="http://www.w3.org/2000/svg">
<path d="M60.5786 90.4331H4.53746C3.5338 90.4331 2.57126 90.0344 1.86156 89.3247C1.15187 88.615 0.753174 87.6525 0.753174 86.6488V14.0831C0.753573 13.037 1.16943 12.0338 1.90931 11.2942C2.64919 10.5546 3.6525 10.1392 4.69865 10.1392H60.4159C60.9339 10.139 61.4469 10.2408 61.9256 10.4389C62.4043 10.6371 62.8392 10.9275 63.2056 11.2938C63.572 11.66 63.8627 12.0949 64.061 12.5735C64.2593 13.0521 64.3613 13.5651 64.3613 14.0831V86.6488C64.3613 87.6522 63.9628 88.6145 63.2535 89.3242C62.5441 90.0338 61.582 90.4327 60.5786 90.4331Z" fill="#DEBB7E"/>
<path d="M60.4154 10.1392H4.69669C3.65055 10.1392 2.64723 10.5546 1.90736 11.2942C1.16748 12.0338 0.75162 13.037 0.751221 14.0831V19.5245C0.751221 18.4182 1.19071 17.3572 1.97301 16.5749C2.75531 15.7926 3.81633 15.3531 4.92267 15.3531H60.1894C61.2958 15.3531 62.3568 15.7926 63.1391 16.5749C63.9214 17.3572 64.3609 18.4182 64.3609 19.5245V14.0831C64.3609 13.5651 64.2588 13.0521 64.0605 12.5735C63.8622 12.0949 63.5716 11.66 63.2052 11.2938C62.8388 10.9275 62.4038 10.6371 61.9252 10.4389C61.4465 10.2408 60.9335 10.139 60.4154 10.1392V10.1392Z" fill="#F0D5A8"/>
<path d="M60.5786 90.4331H4.53746C3.5338 90.4331 2.57126 90.0344 1.86156 89.3247C1.15187 88.615 0.753174 87.6525 0.753174 86.6488V14.0831C0.753573 13.037 1.16943 12.0338 1.90931 11.2942C2.64919 10.5546 3.6525 10.1392 4.69865 10.1392H60.4159C60.9339 10.139 61.4469 10.2408 61.9256 10.4389C62.4043 10.6371 62.8392 10.9275 63.2056 11.2938C63.572 11.66 63.8627 12.0949 64.061 12.5735C64.2593 13.0521 64.3613 13.5651 64.3613 14.0831V86.6488C64.3613 87.6522 63.9628 88.6145 63.2535 89.3242C62.5441 90.0338 61.582 90.4327 60.5786 90.4331Z" stroke="#45413C" stroke-width="1.50648" stroke-linecap="round" stroke-linejoin="round"/>
<path d="M7.00781 16.3947H58.1031V84.1743H7.00781V16.3947Z" fill="white" stroke="#45413C" stroke-width="1.50648" stroke-linecap="round" stroke-linejoin="round"/>
<path d="M14.2935 33.0798H46.154" stroke="#45413C" stroke-width="1.50648" stroke-linecap="round" stroke-linejoin="round"/>
<path d="M14.2935 42.4647H46.154" stroke="#45413C" stroke-width="1.50648" stroke-linecap="round" stroke-linejoin="round"/>
<path d="M14.2935 52.8923H36.499" stroke="#45413C" stroke-width="1.50648" stroke-linecap="round" stroke-linejoin="round"/>
<path d="M18.2859 7.0099H46.8277C47.3295 7.0099 47.8108 7.20925 48.1656 7.56409C48.5204 7.91894 48.7198 8.40021 48.7198 8.90204V18.6731C48.7198 19.1753 48.5203 19.657 48.1652 20.0121C47.81 20.3672 47.3284 20.5667 46.8262 20.5667H18.2874C18.0382 20.5675 17.7913 20.5191 17.5609 20.4243C17.3304 20.3295 17.1209 20.1901 16.9445 20.0142C16.768 19.8383 16.628 19.6293 16.5324 19.3991C16.4369 19.169 16.3877 18.9223 16.3877 18.6731V8.90204C16.3877 8.65305 16.4368 8.40651 16.5323 8.17655C16.6278 7.94659 16.7677 7.73774 16.944 7.56196C17.1204 7.38618 17.3297 7.24693 17.5599 7.1522C17.7902 7.05746 18.0369 7.0091 18.2859 7.0099Z" fill="#E8F4FA"/>
<path d="M46.8262 7.0099H18.2874C18.0382 7.0091 17.7913 7.0575 17.5609 7.15231C17.3304 7.24712 17.1209 7.38648 16.9445 7.5624C16.768 7.73832 16.628 7.94734 16.5324 8.17748C16.4369 8.40762 16.3877 8.65436 16.3877 8.90354V13.2723C16.3877 12.9983 16.4417 12.727 16.5465 12.4739C16.6514 12.2207 16.8051 11.9907 16.9988 11.797C17.1926 11.6032 17.4226 11.4495 17.6757 11.3447C17.9289 11.2398 18.2002 11.1859 18.4742 11.1859H46.6348C47.1879 11.1863 47.7183 11.4063 48.1092 11.7975C48.5002 12.1888 48.7198 12.7192 48.7198 13.2723V8.90354C48.7198 8.65487 48.6708 8.40862 48.5757 8.17888C48.4805 7.94913 48.341 7.74037 48.1652 7.56453C47.9893 7.38869 47.7806 7.24921 47.5508 7.15404C47.3211 7.05888 47.0748 7.0099 46.8262 7.0099Z" fill="white"/>
<path d="M18.2859 7.0099H46.8277C47.3295 7.0099 47.8108 7.20925 48.1656 7.56409C48.5204 7.91894 48.7198 8.40021 48.7198 8.90204V18.6731C48.7198 19.1753 48.5203 19.657 48.1652 20.0121C47.81 20.3672 47.3284 20.5667 46.8262 20.5667H18.2874C18.0382 20.5675 17.7913 20.5191 17.5609 20.4243C17.3304 20.3295 17.1209 20.1901 16.9445 20.0142C16.768 19.8383 16.628 19.6293 16.5324 19.3991C16.4369 19.169 16.3877 18.9223 16.3877 18.6731V8.90204C16.3877 8.65305 16.4368 8.40651 16.5323 8.17655C16.6278 7.94659 16.7677 7.73774 16.944 7.56196C17.1204 7.38618 17.3297 7.24693 17.5599 7.1522C17.7902 7.05746 18.0369 7.0091 18.2859 7.0099Z" stroke="#45413C" stroke-width="1.50648" stroke-linecap="round" stroke-linejoin="round"/>
<path d="M23.6919 16.3947H41.4202" stroke="#45413C" stroke-width="1.50648" stroke-linecap="round" stroke-linejoin="round"/>
<path d="M27.865 5.96723C27.865 6.65193 27.9999 7.32993 28.2619 7.96251C28.5239 8.5951 28.908 9.16988 29.3921 9.65403C29.8763 10.1382 30.4511 10.5222 31.0836 10.7843C31.7162 11.0463 32.3942 11.1812 33.0789 11.1812C33.7636 11.1812 34.4416 11.0463 35.0742 10.7843C35.7068 10.5222 36.2816 10.1382 36.7657 9.65403C37.2499 9.16988 37.6339 8.5951 37.896 7.96251C38.158 7.32993 38.2929 6.65193 38.2929 5.96723C38.2929 5.28253 38.158 4.60452 37.896 3.97194C37.6339 3.33936 37.2499 2.76458 36.7657 2.28042C36.2816 1.79626 35.7068 1.41221 35.0742 1.15018C34.4416 0.888158 33.7636 0.753296 33.0789 0.753296C32.3942 0.753296 31.7162 0.888158 31.0836 1.15018C30.4511 1.41221 29.8763 1.79626 29.3921 2.28042C28.908 2.76458 28.5239 3.33936 28.2619 3.97194C27.9999 4.60452 27.865 5.28253 27.865 5.96723V5.96723Z" fill="#E8F4FA"/>
<path d="M33.0789 4.92545C34.0928 4.92602 35.0845 5.22234 35.9325 5.77812C36.7805 6.33389 37.4479 7.12498 37.853 8.05442C38.2014 7.26083 38.3465 6.3929 38.2752 5.52913C38.2038 4.66536 37.9183 3.833 37.4444 3.10734C36.9704 2.38167 36.3231 1.78559 35.5609 1.37302C34.7987 0.960442 33.9456 0.744385 33.0789 0.744385C32.2122 0.744385 31.3592 0.960442 30.597 1.37302C29.8347 1.78559 29.1874 2.38167 28.7135 3.10734C28.2396 3.833 27.954 4.66536 27.8827 5.52913C27.8113 6.3929 27.9564 7.26083 28.3049 8.05442C28.71 7.12498 29.3774 6.33389 30.2254 5.77812C31.0734 5.22234 32.065 4.92602 33.0789 4.92545V4.92545Z" fill="white"/>
<path d="M27.865 5.96723C27.865 6.65193 27.9999 7.32993 28.2619 7.96251C28.5239 8.5951 28.908 9.16988 29.3921 9.65403C29.8763 10.1382 30.4511 10.5222 31.0836 10.7843C31.7162 11.0463 32.3942 11.1812 33.0789 11.1812C33.7636 11.1812 34.4416 11.0463 35.0742 10.7843C35.7068 10.5222 36.2816 10.1382 36.7657 9.65403C37.2499 9.16988 37.6339 8.5951 37.896 7.96251C38.158 7.32993 38.2929 6.65193 38.2929 5.96723C38.2929 5.28253 38.158 4.60452 37.896 3.97194C37.6339 3.33936 37.2499 2.76458 36.7657 2.28042C36.2816 1.79626 35.7068 1.41221 35.0742 1.15018C34.4416 0.888158 33.7636 0.753296 33.0789 0.753296C32.3942 0.753296 31.7162 0.888158 31.0836 1.15018C30.4511 1.41221 29.8763 1.79626 29.3921 2.28042C28.908 2.76458 28.5239 3.33936 28.2619 3.97194C27.9999 4.60452 27.865 5.28253 27.865 5.96723V5.96723Z" stroke="#45413C" stroke-width="1.50648" stroke-linecap="round" stroke-linejoin="round"/>
<path opacity="0.15" d="M58.1055 39.6166L43.2666 55.6907C42.3306 56.708 41.8365 58.0552 41.893 59.4364C41.9495 60.8177 42.5519 62.12 43.5679 63.0574C44.204 63.6425 44.9777 64.0571 45.8171 64.2626L40.9963 69.0833L41.7345 69.8215L35.219 76.3356C34.9276 76.6262 34.7285 76.9963 34.6467 77.3996C34.5649 77.8029 34.604 78.2214 34.7591 78.6026C34.9142 78.9838 35.1784 79.3107 35.5186 79.5423C35.8587 79.7738 36.2597 79.8998 36.6712 79.9044C36.8231 79.9041 36.9745 79.8885 37.1232 79.8577C42.8327 78.6435 45.7372 76.8899 45.7704 74.6393L46.1651 74.2446L47.6399 75.7194L51.2871 72.0737C51.5442 72.2804 51.8201 72.4624 52.1112 72.6176C53.071 73.1275 54.1661 73.3251 55.2437 73.1828C56.3212 73.0404 57.3275 72.5653 58.122 71.8236L58.1055 39.6166Z" fill="#45413C"/>
<path d="M54.51 52.2431L72.7761 59.0569L80.4591 46.7339L60.5977 41.3708L54.51 52.2431Z" fill="#FFBE3D"/>
<path d="M83.6298 73.0428L97.7757 58.897C97.8303 58.8428 97.8887 58.7924 97.9504 58.7463C93.2155 54.6366 92.0465 45.9412 82.9413 41.1777C70.9528 34.9183 56.126 36.4112 43.1039 52.6737C42.5614 53.3948 42.3202 54.2985 42.4312 55.1941C42.5423 56.0896 42.9969 56.907 43.6991 57.4738C44.4013 58.0406 45.2963 58.3125 46.1951 58.232C47.0939 58.1515 47.9264 57.725 48.5167 57.0425C49.3784 55.9744 50.2447 54.9831 51.1124 54.0536C51.4183 54.3805 51.7846 54.645 52.191 54.8325C65.8172 65.1489 68.5635 66.4595 71.9048 67.7581C77.0585 69.7617 79.3348 70.7289 83.1236 74.1591C83.1507 73.7378 83.3307 73.3408 83.6298 73.0428V73.0428ZM74.2896 51.0226C73.1408 52.4107 71.543 53.3538 69.7725 53.6886C68.002 54.0233 66.1702 53.7288 64.5939 52.856L56.5403 49.1651C61.242 45.7228 65.9859 44.2871 70.7117 44.9033C74.731 45.426 75.662 48.9813 74.2941 51.0166L74.2896 51.0226Z" fill="#FFDA8F"/>
<path d="M95.193 61.4721L97.7766 58.89C97.8313 58.8358 97.8897 58.7855 97.9514 58.7394C93.2165 54.6297 92.0475 45.9343 82.9423 41.1708C70.9537 34.9113 56.1269 36.4043 43.1049 52.6667C42.6054 53.2889 42.334 54.0634 42.3359 54.8613C42.3379 55.6592 42.613 56.4323 43.1155 57.0521C43.2159 56.8608 43.3339 56.6792 43.468 56.5098C56.4915 40.2398 70.077 39.2078 82.1725 45.2564C86.1933 47.2645 91.588 56.7372 95.193 61.4721Z" fill="#FFE9BD"/>
<path opacity="0.15" d="M9.60742 102.504C9.60742 102.847 10.1924 103.186 11.3289 103.503C12.4654 103.82 14.1313 104.107 16.2313 104.349C18.3313 104.592 20.8244 104.784 23.5682 104.915C26.312 105.046 29.2528 105.114 32.2227 105.114C35.1926 105.114 38.1334 105.046 40.8772 104.915C43.621 104.784 46.1141 104.592 48.2142 104.349C50.3142 104.107 51.98 103.82 53.1165 103.503C54.2531 103.186 54.838 102.847 54.838 102.504C54.838 102.162 54.2531 101.823 53.1165 101.506C51.98 101.189 50.3142 100.902 48.2142 100.659C46.1141 100.417 43.621 100.225 40.8772 100.094C38.1334 99.9627 35.1926 99.8953 32.2227 99.8953C29.2528 99.8953 26.312 99.9627 23.5682 100.094C20.8244 100.225 18.3313 100.417 16.2313 100.659C14.1313 100.902 12.4654 101.189 11.3289 101.506C10.1924 101.823 9.60742 102.162 9.60742 102.504V102.504Z" fill="#45413C"/>
<path d="M17.4753 63.7289C16.936 64.2678 16.5379 64.9315 16.3164 65.6611C16.0949 66.3907 16.0568 67.1636 16.2054 67.9115C16.354 68.6593 16.6849 69.359 17.1686 69.9484C17.6522 70.5378 18.2739 70.9988 18.9783 71.2905C19.6828 71.5822 20.4483 71.6957 21.2071 71.6208C21.9659 71.546 22.6945 71.2851 23.3283 70.8613C23.9622 70.4375 24.4817 69.8639 24.8409 69.1913C25.2 68.5187 25.3877 67.7679 25.3873 67.0055V67.9335C25.3873 68.9167 25.7779 69.8598 26.4732 70.555C27.1685 71.2503 28.1115 71.6409 29.0948 71.6409C30.0781 71.6409 31.0211 71.2503 31.7164 70.555C32.4116 69.8598 32.8022 68.9167 32.8022 67.9335C32.8022 68.9167 33.1928 69.8598 33.8881 70.555C34.5834 71.2503 35.5264 71.6409 36.5097 71.6409H39.2861" stroke="#FF6242" stroke-width="1.50648" stroke-linecap="round" stroke-linejoin="round"/>
<path d="M63.4572 53.6659C63.9135 53.6906 64.3604 53.8049 64.7724 54.0023C65.1845 54.1997 65.5536 54.4763 65.8587 54.8164C66.1638 55.1565 66.3989 55.5534 66.5506 55.9844C66.7023 56.4153 66.7677 56.872 66.7429 57.3282L66.1312 68.6268C66.0813 69.5482 65.6674 70.4119 64.9806 71.0281C64.2938 71.6443 63.3903 71.9624 62.469 71.9124C61.5476 71.8625 60.6839 71.4486 60.0677 70.7618C59.4515 70.075 59.1334 69.1715 59.1833 68.2502L59.795 56.9516C59.8452 56.0303 60.2591 55.1667 60.9459 54.5506C61.6326 53.9344 62.5359 53.6163 63.4572 53.6659V53.6659Z" fill="#FFBE3D" stroke="#45413C" stroke-width="1.50648" stroke-linecap="round" stroke-linejoin="round"/>
<path d="M59.8625 52.5805C60.6769 53.0144 61.2856 53.7539 61.5548 54.6364C61.824 55.5189 61.7317 56.4723 61.2982 57.2868L57.1449 65.3675C56.7003 66.162 55.9621 66.7507 55.0886 67.0073C54.2151 67.2639 53.2758 67.1679 52.4723 66.74C51.6687 66.3121 51.0648 65.5863 50.7901 64.7183C50.5154 63.8503 50.5918 62.9093 51.0029 62.097L55.1563 54.0162C55.371 53.6128 55.663 53.2557 56.0157 52.9653C56.3685 52.6748 56.7749 52.4567 57.212 52.3234C57.649 52.19 58.1081 52.1441 58.5628 52.1883C59.0176 52.2324 59.4593 52.3657 59.8625 52.5805V52.5805Z" fill="#FFBE3D" stroke="#45413C" stroke-width="1.50648" stroke-linecap="round" stroke-linejoin="round"/>
<path d="M97.7757 58.89C97.8303 58.8358 97.8887 58.7855 97.9504 58.7394C93.2155 54.6297 92.0465 45.9343 82.9413 41.1708C70.9528 34.9113 56.126 36.4043 43.1039 52.6667C42.5614 53.3879 42.3202 54.2915 42.4312 55.1871C42.5423 56.0827 42.9969 56.9001 43.6991 57.4669C44.4013 58.0337 45.2963 58.3055 46.1951 58.225C47.0939 58.1445 47.9264 57.7181 48.5167 57.0355C49.3784 55.9674 50.2447 54.9762 51.1124 54.0467C51.4183 54.3735 51.7846 54.638 52.191 54.8255C65.8172 65.1419 68.5635 66.4525 71.9048 67.7511C77.0585 69.7548 79.3348 70.7219 83.1236 74.1522C83.15 73.7298 83.33 73.3316 83.6298 73.0329L97.7757 58.89ZM74.2896 51.0126C73.142 52.4023 71.5448 53.347 69.7742 53.6835C68.0037 54.0199 66.1712 53.7269 64.5939 52.855L56.5403 49.1642C61.242 45.7219 65.9859 44.2862 70.7117 44.9023C74.731 45.4251 75.662 48.9804 74.2941 51.0156L74.2896 51.0126Z" stroke="#45413C" stroke-width="1.50648" stroke-linecap="round" stroke-linejoin="round"/>
<path d="M71.282 51.7078L66.749 45.3234L80.8723 35.2902C81.2523 35.02 81.6818 34.8274 82.1363 34.7233C82.5907 34.6192 83.0613 34.6056 83.521 34.6834C83.9807 34.7612 84.4206 34.9288 84.8155 35.1766C85.2104 35.4245 85.5526 35.7477 85.8226 36.1278L86.2444 36.7214C86.5145 37.1015 86.707 37.531 86.811 37.9856C86.915 38.4401 86.9284 38.9107 86.8505 39.3704C86.7726 39.8301 86.6048 40.2699 86.3569 40.6648C86.1089 41.0597 85.7855 41.4018 85.4053 41.6717L71.282 51.7078Z" fill="#FF6242"/>
<path d="M86.0591 36.4729C86.0486 36.4578 86.044 36.4427 86.0335 36.4277C85.7678 35.9712 85.4051 35.5787 84.9709 35.2779C84.5368 34.9771 84.0418 34.7755 83.5211 34.6873C83.0003 34.599 82.4666 34.6263 81.9576 34.7672C81.4485 34.9081 80.9767 35.1592 80.5755 35.5027L66.749 45.3234L68.9395 48.4057L86.0591 36.4729Z" fill="#FF866E"/>
<path d="M71.282 51.7078L66.749 45.3234L80.8723 35.2902C81.2523 35.02 81.6818 34.8274 82.1363 34.7233C82.5907 34.6192 83.0613 34.6056 83.521 34.6834C83.9807 34.7612 84.4206 34.9288 84.8155 35.1766C85.2104 35.4245 85.5526 35.7477 85.8226 36.1278L86.2444 36.7214C86.5145 37.1015 86.707 37.531 86.811 37.9856C86.915 38.4401 86.9284 38.9107 86.8505 39.3704C86.7726 39.8301 86.6048 40.2699 86.3569 40.6648C86.1089 41.0597 85.7855 41.4018 85.4053 41.6717L71.282 51.7078Z" stroke="#45413C" stroke-width="1.50648" stroke-linecap="round" stroke-linejoin="round"/>
<path d="M67.3652 41.6867L77.2914 34.6349C77.5685 34.4298 77.8841 34.2828 78.2193 34.2027C78.5546 34.1225 78.9025 34.1108 79.2424 34.1684C79.5822 34.2259 79.907 34.3515 80.1972 34.5375C80.4873 34.7235 80.737 34.9662 80.9311 35.251" stroke="#45413C" stroke-width="1.50648" stroke-linecap="round" stroke-linejoin="round"/>
<path d="M44.5388 63.2365L37.5638 68.1913C37.4105 68.2989 37.296 68.4531 37.2374 68.631C37.1789 68.8089 37.1793 69.001 37.2388 69.1786C37.2982 69.3563 37.4134 69.51 37.5673 69.6168C37.7211 69.7236 37.9054 69.7779 38.0926 69.7716C41.0167 69.651 45.1957 69.1208 45.1354 67.081L46.553 66.0732L44.5388 63.2365Z" fill="#FFE500" stroke="#45413C" stroke-width="1.50648" stroke-linecap="round" stroke-linejoin="round"/>
<path d="M47.0584 66.7813L44.5396 63.2366C44.4082 63.0492 44.356 62.8175 44.3944 62.5919C44.4327 62.3663 44.5585 62.1649 44.7445 62.0314L48.2907 59.5126L51.8159 64.484L48.2711 67.0028C48.177 67.068 48.071 67.114 47.959 67.1382C47.8471 67.1623 47.7315 67.1642 47.6189 67.1436C47.5062 67.1231 47.3987 67.0805 47.3026 67.0183C47.2064 66.9561 47.1234 66.8756 47.0584 66.7813V66.7813Z" fill="#DAEDF7"/>
<path d="M49.8575 61.7118L48.2892 59.5048L44.7445 62.0236C44.5585 62.1571 44.4327 62.3585 44.3944 62.5841C44.356 62.8097 44.4082 63.0414 44.5396 63.2288L45.5776 64.6901L49.8575 61.7118Z" fill="#E8F4FA"/>
<path d="M47.0584 66.7813L44.5396 63.2366C44.4082 63.0492 44.356 62.8175 44.3944 62.5919C44.4327 62.3663 44.5585 62.1649 44.7445 62.0314L48.2907 59.5126L51.8159 64.484L48.2711 67.0028C48.177 67.068 48.071 67.114 47.959 67.1382C47.8471 67.1623 47.7315 67.1642 47.6189 67.1436C47.5062 67.1231 47.3987 67.0805 47.3026 67.0183C47.2064 66.9561 47.1234 66.8756 47.0584 66.7813V66.7813Z" stroke="#45413C" stroke-width="1.50648" stroke-linecap="round" stroke-linejoin="round"/>
<path d="M51.3125 63.7591L48.7937 60.2143C48.5267 59.8381 48.42 59.3713 48.4972 58.9165C48.5743 58.4616 48.8289 58.0561 49.2049 57.7889L66.7494 45.3228L71.2824 51.7042L53.7379 64.1703C53.3617 64.4373 52.8949 64.544 52.4401 64.4668C51.9852 64.3897 51.5797 64.1351 51.3125 63.7591V63.7591Z" fill="#FF6242"/>
<path d="M49.8568 61.7118L68.9394 48.408L66.749 45.3228L49.2045 57.7889C49.0182 57.9211 48.8597 58.0887 48.7381 58.2821C48.6166 58.4756 48.5343 58.6911 48.4961 58.9164C48.4579 59.1416 48.4645 59.3722 48.5155 59.5949C48.5665 59.8176 48.6609 60.0281 48.7933 60.2143L49.8568 61.7118Z" fill="#FF866E"/>
<path d="M51.3125 63.7591L48.7937 60.2143C48.5267 59.8381 48.42 59.3713 48.4972 58.9165C48.5743 58.4616 48.8289 58.0561 49.2049 57.7889L66.7494 45.3228L71.2824 51.7042L53.7379 64.1703C53.3617 64.4373 52.8949 64.544 52.4401 64.4668C51.9852 64.3897 51.5797 64.1351 51.3125 63.7591V63.7591Z" stroke="#45413C" stroke-width="1.50648" stroke-linecap="round" stroke-linejoin="round"/>
<path d="M74.2959 51.0162C73.1476 52.4064 71.5494 53.3513 69.7778 53.6873C68.0063 54.0232 66.1731 53.729 64.5956 52.8556L55.0837 48.5064C54.6666 48.3043 54.2134 48.1876 53.7506 48.1631C53.2878 48.1385 52.8248 48.2067 52.3887 48.3635C51.9526 48.5204 51.5523 48.7627 51.2111 49.0764C50.8699 49.39 50.5949 49.7687 50.402 50.1901C50.2092 50.6115 50.1024 51.0672 50.0881 51.5304C50.0737 51.9936 50.1521 52.455 50.3184 52.8876C50.4848 53.3201 50.7359 53.715 51.057 54.0492C51.3781 54.3834 51.7627 54.6501 52.1882 54.8336C65.8144 65.15 68.5607 66.4606 71.902 67.7592" fill="#FFCEBF"/>
<path d="M56.1735 53.065L65.6854 57.4142C66.5105 57.8185 67.4195 58.0218 68.3382 58.0074C69.2568 57.9931 70.1591 57.7614 70.971 57.3315C71.783 56.9016 72.4817 56.2855 73.0099 55.5338C73.5382 54.782 73.881 53.9159 74.0102 53.0062L74.295 51.0131C73.1472 52.4039 71.5491 53.3494 69.7775 53.6859C68.006 54.0223 66.1725 53.7286 64.5947 52.8556L55.0828 48.5064C54.2893 48.1441 53.3886 48.0935 52.5595 48.3646C51.7304 48.6357 51.0335 49.2086 50.6073 49.9697C50.181 50.7307 50.0565 51.6243 50.2586 52.4728C50.4606 53.3214 50.9743 54.063 51.6977 54.5504C52.1185 53.7836 52.8138 53.2043 53.6439 52.9288C54.4741 52.6533 55.3777 52.7019 56.1735 53.065V53.065Z" fill="#FFDCD1"/>
<path d="M74.2959 51.0162C73.1476 52.4064 71.5494 53.3513 69.7778 53.6873C68.0063 54.0232 66.1731 53.729 64.5956 52.8556L55.0837 48.5064C54.6666 48.3043 54.2134 48.1876 53.7506 48.1631C53.2878 48.1385 52.8248 48.2067 52.3887 48.3635C51.9526 48.5204 51.5523 48.7627 51.2111 49.0764C50.8699 49.39 50.5949 49.7687 50.402 50.1901C50.2092 50.6115 50.1024 51.0672 50.0881 51.5304C50.0737 51.9936 50.1521 52.455 50.3184 52.8876C50.4848 53.3201 50.7359 53.715 51.057 54.0492C51.3781 54.3834 51.7627 54.6501 52.1882 54.8336C65.8144 65.15 68.5607 66.4606 71.902 67.7592" stroke="#45413C" stroke-width="1.50648" stroke-linecap="round" stroke-linejoin="round"/>
<path d="M74.2959 51.0162C73.1476 52.4064 71.5494 53.3513 69.7778 53.6873C68.0063 54.0232 66.1731 53.729 64.5956 52.8556L55.0837 48.5064C54.6666 48.3043 54.2134 48.1876 53.7506 48.1631C53.2878 48.1385 52.8248 48.2067 52.3887 48.3635C51.9526 48.5204 51.5523 48.7627 51.2111 49.0764C50.8699 49.39 50.5949 49.7687 50.402 50.1901C50.2092 50.6115 50.1024 51.0672 50.0881 51.5304C50.0737 51.9936 50.1521 52.455 50.3184 52.8876C50.4848 53.3201 50.7359 53.715 51.057 54.0492C51.3781 54.3834 51.7627 54.6501 52.1882 54.8336C65.8144 65.15 68.5607 66.4606 71.902 67.7592" fill="#FFDA8F"/>
<path d="M56.1735 53.065L65.6854 57.4142C66.5105 57.8185 67.4195 58.0218 68.3382 58.0074C69.2568 57.9931 70.1591 57.7614 70.971 57.3315C71.783 56.9016 72.4817 56.2855 73.0099 55.5338C73.5382 54.782 73.881 53.9159 74.0102 53.0062L74.295 51.0131C73.1472 52.4039 71.5491 53.3494 69.7775 53.6859C68.006 54.0223 66.1725 53.7286 64.5947 52.8556L55.0828 48.5064C54.2893 48.1441 53.3886 48.0935 52.5595 48.3646C51.7304 48.6357 51.0335 49.2086 50.6073 49.9697C50.181 50.7307 50.0565 51.6243 50.2586 52.4728C50.4606 53.3214 50.9743 54.063 51.6977 54.5504C52.1185 53.7836 52.8138 53.2043 53.6439 52.9288C54.4741 52.6533 55.3777 52.7019 56.1735 53.065V53.065Z" fill="#FFE9BD"/>
<path d="M74.2959 51.0162C73.1476 52.4064 71.5494 53.3513 69.7778 53.6873C68.0063 54.0232 66.1731 53.729 64.5956 52.8556L55.0837 48.5064C54.6666 48.3043 54.2134 48.1876 53.7506 48.1631C53.2878 48.1385 52.8248 48.2067 52.3887 48.3635C51.9526 48.5204 51.5523 48.7627 51.2111 49.0764C50.8699 49.39 50.5949 49.7687 50.402 50.1901C50.2092 50.6115 50.1024 51.0672 50.0881 51.5304C50.0737 51.9936 50.1521 52.455 50.3184 52.8876C50.4848 53.3201 50.7359 53.715 51.057 54.0492C51.3781 54.3834 51.7627 54.6501 52.1882 54.8336C65.8144 65.15 68.5607 66.4606 71.902 67.7592" stroke="#45413C" stroke-width="1.50648" stroke-linecap="round" stroke-linejoin="round"/>
</svg>
