<svg width="23" height="24" viewBox="0 0 23 24" fill="none" xmlns="http://www.w3.org/2000/svg">
<path opacity="0.15" d="M0 21.6996C-3.0358e-08 21.7576 0.283744 21.8149 0.835031 21.8685C1.38632 21.922 2.19435 21.9707 3.213 22.0117C4.23164 22.0526 5.44095 22.0851 6.77187 22.1073C8.1028 22.1295 9.52927 22.1409 10.9699 22.1409C12.4104 22.1409 13.8369 22.1295 15.1678 22.1073C16.4988 22.0851 17.7081 22.0526 18.7267 22.0117C19.7454 21.9707 20.5534 21.922 21.1047 21.8685C21.656 21.8149 21.9397 21.7576 21.9397 21.6996C21.9397 21.6417 21.656 21.5843 21.1047 21.5307C20.5534 21.4772 19.7454 21.4285 18.7267 21.3876C17.7081 21.3466 16.4988 21.3141 15.1678 21.2919C13.8369 21.2697 12.4104 21.2583 10.9699 21.2583C9.52927 21.2583 8.1028 21.2697 6.77187 21.2919C5.44095 21.3141 4.23164 21.3466 3.213 21.3876C2.19435 21.4285 1.38632 21.4772 0.835031 21.5307C0.283744 21.5843 -3.0358e-08 21.6417 0 21.6996V21.6996Z" fill="#45413C"/>
<path d="M13.381 19.6574C12.6082 19.6574 11.6609 22.3473 8.94075 21.224C7.65018 20.6916 5.15309 22.2988 4.19987 20.7477C4.14383 20.6563 4.07715 20.5389 4.07715 20.5389C6.1461 20.735 5.61289 19.0539 8.03656 19.5739C8.16467 19.5989 8.29677 19.5945 8.42294 19.5612C8.54912 19.5278 8.66609 19.4662 8.76507 19.3811C8.86489 19.2979 8.94532 19.1939 9.00074 19.0763C9.05615 18.9588 9.08521 18.8305 9.08589 18.7006C9.0864 18.5748 9.06209 18.4502 9.01434 18.3338C8.9666 18.2174 8.89636 18.1117 8.80764 18.0225C8.71893 17.9334 8.6135 17.8626 8.49738 17.8143C8.38127 17.7659 8.25676 17.741 8.13099 17.7409H7.66306C6.83194 17.7401 6.03507 17.4096 5.44732 16.8219C4.85957 16.2343 4.52894 15.4375 4.52798 14.6064C4.52874 14.1941 4.61271 13.7862 4.77487 13.4072C4.93702 13.0281 5.17402 12.6857 5.47167 12.4004C5.59093 12.2867 5.67716 12.1428 5.72122 11.984C5.76527 11.8252 5.7655 11.6574 5.72188 11.4985C5.62017 11.1275 5.63951 9.21377 6.73731 9.21377L7.12705 10.6823C7.42322 11.7646 7.75749 13.1707 6.94633 13.9451C6.8571 14.0305 6.78604 14.1331 6.73741 14.2466C6.68878 14.3601 6.66358 14.4823 6.66333 14.6058C6.66363 14.8706 6.76894 15.1244 6.95615 15.3116C7.14336 15.4988 7.39719 15.6041 7.66194 15.6044C7.84938 15.6044 8.03498 15.5675 8.20815 15.4958C8.38132 15.424 8.53866 15.3189 8.6712 15.1864C8.80374 15.0538 8.90887 14.8965 8.9806 14.7233C9.05233 14.5502 9.08925 14.3646 9.08925 14.1771V8.11765C9.0984 6.98531 9.55464 5.90246 10.3586 5.10499C11.1625 4.30752 12.249 3.86005 13.3814 3.86005C14.5138 3.86005 15.6003 4.30752 16.4042 5.10499C17.2081 5.90246 17.6644 6.98531 17.6735 8.11765V14.1777C17.674 14.5561 17.8245 14.919 18.0922 15.1865C18.3598 15.4541 18.7227 15.6046 19.1011 15.605C19.3658 15.6046 19.6196 15.4993 19.8067 15.3121C19.9939 15.1249 20.0992 14.8711 20.0995 14.6064C20.0992 14.4829 20.074 14.3607 20.0254 14.2472C19.9769 14.1337 19.9059 14.0311 19.8167 13.9457C19.0042 13.1712 19.3404 11.7652 19.636 10.6828L20.0255 9.21433C21.1233 9.21433 21.1426 11.128 21.0412 11.499C20.9975 11.6579 20.9977 11.8257 21.0418 11.9845C21.0858 12.1434 21.1721 12.2873 21.2914 12.401C21.589 12.6862 21.8259 13.0285 21.9881 13.4075C22.1502 13.7864 22.2343 14.1942 22.2351 14.6064C22.234 15.4372 21.9034 16.2337 21.3159 16.8212C20.7285 17.4087 19.932 17.7392 19.1011 17.7403H18.6332C18.5074 17.7404 18.3829 17.7653 18.2667 17.8136C18.1506 17.8619 18.0451 17.9326 17.9564 18.0218C17.8677 18.111 17.7974 18.2168 17.7497 18.3332C17.702 18.4495 17.6777 18.5742 17.6783 18.7C17.6789 18.83 17.708 18.9582 17.7634 19.0758C17.8188 19.1934 17.8993 19.2974 17.9991 19.3806C18.0979 19.4655 18.2147 19.5269 18.3406 19.5603C18.4665 19.5937 18.5983 19.5982 18.7262 19.5734C21.1496 19.0539 20.6173 20.7336 22.6856 20.5383C22.6856 20.5383 22.619 20.6557 22.5629 20.7471C21.6103 22.2988 19.1126 20.6911 17.822 21.2234C15.1019 22.3473 14.1546 19.6574 13.3821 19.6574H13.381Z" fill="#00B8F0"/>
<path d="M13.3815 4.89663C13.9452 4.89663 14.5033 5.00766 15.0241 5.22337C15.5448 5.43908 16.018 5.75525 16.4165 6.15383C16.8151 6.55241 17.1312 7.02559 17.3469 7.54635C17.5626 8.06711 17.6736 8.62526 17.6735 9.18891V8.11773C17.6781 7.55116 17.5705 6.98929 17.3568 6.46453C17.1432 5.93977 16.8278 5.46249 16.4287 5.06024C16.0297 4.65798 15.555 4.33871 15.032 4.12083C14.509 3.90295 13.948 3.79077 13.3814 3.79077C12.8148 3.79077 12.2538 3.90295 11.7308 4.12083C11.2078 4.33871 10.7331 4.65798 10.3341 5.06024C9.93504 5.46249 9.61961 5.93977 9.40596 6.46453C9.19231 6.98929 9.08467 7.55116 9.08925 8.11773V9.18891C9.08925 8.62524 9.20027 8.06709 9.41598 7.54633C9.63169 7.02556 9.94786 6.55239 10.3464 6.15381C10.745 5.75524 11.2182 5.43907 11.7389 5.22336C12.2597 5.00765 12.8179 4.89663 13.3815 4.89663V4.89663Z" fill="#4ACFFF"/>
<path d="M13.381 19.6575C12.6082 19.6575 11.6609 22.3473 8.94075 21.224C7.65017 20.6917 5.15309 22.2988 4.19987 20.7477C4.14383 20.6563 4.07715 20.5389 4.07715 20.5389C5.52183 21.5412 6.54453 19.8923 9.00015 20.3742C12.4872 21.0587 11.1464 19.0293 13.3832 19.658" fill="#B8ECFF"/>
<path d="M13.381 19.6575C12.6082 19.6575 11.6609 22.3473 8.94075 21.224C7.65017 20.6917 5.15309 22.2988 4.19987 20.7477C4.14383 20.6563 4.07715 20.5389 4.07715 20.5389C5.52183 21.5412 6.54453 19.8923 9.00015 20.3742C12.4872 21.0587 11.1464 19.0293 13.3832 19.658" stroke="#45413C" stroke-width="0.280193" stroke-linecap="round" stroke-linejoin="round"/>
<path d="M17.764 20.3738C14.277 21.0583 15.6178 19.0289 13.381 19.6577C14.1535 19.6577 15.1008 22.3475 17.8209 21.2242C19.1115 20.6918 21.6089 22.2993 22.5618 20.7479C22.6178 20.6565 22.6845 20.5391 22.6845 20.5391C21.2354 21.5565 20.225 19.8908 17.764 20.3738Z" fill="#B8ECFF" stroke="#45413C" stroke-width="0.280193" stroke-linecap="round" stroke-linejoin="round"/>
<path d="M13.381 19.6574C12.6082 19.6574 11.6609 22.3473 8.94075 21.224C7.65018 20.6916 5.15309 22.2988 4.19987 20.7477C4.14383 20.6563 4.07715 20.5389 4.07715 20.5389C6.1461 20.735 5.61289 19.0539 8.03656 19.5739C8.16467 19.5989 8.29677 19.5945 8.42294 19.5612C8.54912 19.5278 8.66609 19.4662 8.76507 19.3811C8.86489 19.2979 8.94532 19.1939 9.00074 19.0763C9.05615 18.9588 9.08521 18.8305 9.08589 18.7006C9.0864 18.5748 9.06209 18.4502 9.01434 18.3338C8.9666 18.2174 8.89636 18.1117 8.80764 18.0225C8.71893 17.9334 8.6135 17.8626 8.49738 17.8143C8.38127 17.7659 8.25676 17.741 8.13099 17.7409H7.66306C6.83194 17.7401 6.03507 17.4096 5.44732 16.8219C4.85957 16.2343 4.52894 15.4375 4.52798 14.6064C4.52874 14.1941 4.61271 13.7862 4.77487 13.4072C4.93702 13.0281 5.17402 12.6857 5.47167 12.4004C5.59093 12.2867 5.67716 12.1428 5.72122 11.984C5.76527 11.8252 5.7655 11.6574 5.72188 11.4985C5.62017 11.1275 5.63951 9.21377 6.73731 9.21377L7.12705 10.6823C7.42322 11.7646 7.75749 13.1707 6.94633 13.9451C6.8571 14.0305 6.78604 14.1331 6.73741 14.2466C6.68878 14.3601 6.66358 14.4823 6.66333 14.6058C6.66363 14.8706 6.76894 15.1244 6.95615 15.3116C7.14336 15.4988 7.39719 15.6041 7.66194 15.6044C7.84938 15.6044 8.03498 15.5675 8.20815 15.4958C8.38132 15.424 8.53866 15.3189 8.6712 15.1864C8.80374 15.0538 8.90887 14.8965 8.9806 14.7233C9.05233 14.5502 9.08925 14.3646 9.08925 14.1771V8.11765C9.0984 6.98531 9.55464 5.90246 10.3586 5.10499C11.1625 4.30752 12.249 3.86005 13.3814 3.86005C14.5138 3.86005 15.6003 4.30752 16.4042 5.10499C17.2081 5.90246 17.6644 6.98531 17.6735 8.11765V14.1777C17.674 14.5561 17.8245 14.919 18.0922 15.1865C18.3598 15.4541 18.7227 15.6046 19.1011 15.605C19.3658 15.6046 19.6196 15.4993 19.8067 15.3121C19.9939 15.1249 20.0992 14.8711 20.0995 14.6064C20.0992 14.4829 20.074 14.3607 20.0254 14.2472C19.9769 14.1337 19.9059 14.0311 19.8167 13.9457C19.0042 13.1712 19.3404 11.7652 19.636 10.6828L20.0255 9.21433C21.1233 9.21433 21.1426 11.128 21.0412 11.499C20.9975 11.6579 20.9977 11.8257 21.0418 11.9845C21.0858 12.1434 21.1721 12.2873 21.2914 12.401C21.589 12.6862 21.8259 13.0285 21.9881 13.4075C22.1502 13.7864 22.2343 14.1942 22.2351 14.6064C22.234 15.4372 21.9034 16.2337 21.3159 16.8212C20.7285 17.4087 19.932 17.7392 19.1011 17.7403H18.6332C18.5074 17.7404 18.3829 17.7653 18.2667 17.8136C18.1506 17.8619 18.0451 17.9326 17.9564 18.0218C17.8677 18.111 17.7974 18.2168 17.7497 18.3332C17.702 18.4495 17.6777 18.5742 17.6783 18.7C17.6789 18.83 17.708 18.9582 17.7634 19.0758C17.8188 19.1934 17.8993 19.2974 17.9991 19.3806C18.0979 19.4655 18.2147 19.5269 18.3406 19.5603C18.4665 19.5937 18.5983 19.5982 18.7262 19.5734C21.1496 19.0539 20.6173 20.7336 22.6856 20.5383C22.6856 20.5383 22.619 20.6557 22.5629 20.7471C21.6103 22.2988 19.1126 20.6911 17.822 21.2234C15.1019 22.3473 14.1546 19.6574 13.3821 19.6574H13.381Z" stroke="#45413C" stroke-width="0.280193" stroke-linecap="round" stroke-linejoin="round"/>
<path d="M11.2869 7.35773C11.2869 7.91328 11.5076 8.44609 11.9004 8.83892C12.2932 9.23176 12.826 9.45245 13.3816 9.45245C13.9371 9.45245 14.47 9.23176 14.8628 8.83892C15.2556 8.44609 15.4763 7.91328 15.4763 7.35773C15.4763 6.80217 15.2556 6.26937 14.8628 5.87653C14.47 5.48369 13.9371 5.263 13.3816 5.263C12.826 5.263 12.2932 5.48369 11.9004 5.87653C11.5076 6.26937 11.2869 6.80217 11.2869 7.35773V7.35773Z" fill="#F0F0F0"/>
<path d="M12.5126 7.35789C12.5126 7.58833 12.6041 7.80934 12.7671 7.97228C12.93 8.13523 13.151 8.22677 13.3815 8.22677C13.6119 8.22677 13.8329 8.13523 13.9958 7.97228C14.1588 7.80934 14.2503 7.58833 14.2503 7.35789C14.2503 7.12745 14.1588 6.90645 13.9958 6.7435C13.8329 6.58056 13.6119 6.48901 13.3815 6.48901C13.151 6.48901 12.93 6.58056 12.7671 6.7435C12.6041 6.90645 12.5126 7.12745 12.5126 7.35789V7.35789Z" fill="#FF6242" stroke="#45413C" stroke-width="0.280193" stroke-linecap="round" stroke-linejoin="round"/>
<path d="M13.3816 12.1763C13.7929 12.1851 14.1935 12.0448 14.5095 11.7814C14.8254 11.5179 15.0354 11.149 15.1006 10.7429C15.1038 10.7184 15.101 10.6936 15.0924 10.6705C15.0838 10.6474 15.0697 10.6267 15.0513 10.6103C15.0323 10.5932 15.0097 10.5805 14.9852 10.5734C14.9606 10.5662 14.9348 10.5646 14.9095 10.5689C13.8973 10.7308 12.8657 10.7308 11.8535 10.5689C11.8283 10.5646 11.8024 10.5661 11.7779 10.5733C11.7534 10.5804 11.7308 10.5931 11.712 10.6103C11.6935 10.6267 11.6794 10.6474 11.6707 10.6705C11.6621 10.6935 11.6592 10.7184 11.6624 10.7429C11.7276 11.1491 11.9376 11.518 12.2536 11.7815C12.5696 12.0449 12.9703 12.1852 13.3816 12.1763V12.1763Z" fill="#FFB0CA" stroke="#45413C" stroke-width="0.280193" stroke-linecap="round" stroke-linejoin="round"/>
<path d="M19.9166 12.0614C19.9166 12.1781 19.9496 12.29 20.0084 12.3725C20.0671 12.455 20.1468 12.5013 20.2299 12.5013C20.313 12.5013 20.3926 12.455 20.4514 12.3725C20.5101 12.29 20.5431 12.1781 20.5431 12.0614C20.5431 11.9448 20.5101 11.8329 20.4514 11.7504C20.3926 11.6679 20.313 11.6215 20.2299 11.6215C20.1468 11.6215 20.0671 11.6679 20.0084 11.7504C19.9496 11.8329 19.9166 11.9448 19.9166 12.0614V12.0614Z" fill="#80DDFF" stroke="#45413C" stroke-width="0.280193" stroke-linecap="round" stroke-linejoin="round"/>
<path d="M20.7505 14.1357C20.7828 14.2478 20.8456 14.3461 20.9249 14.4091C21.0043 14.4721 21.0937 14.4945 21.1735 14.4714C21.2533 14.4484 21.317 14.3817 21.3505 14.2862C21.3841 14.1906 21.3848 14.074 21.3524 13.9619C21.32 13.8498 21.2573 13.7514 21.1779 13.6885C21.0986 13.6255 21.0092 13.6031 20.9294 13.6262C20.8496 13.6492 20.7859 13.7158 20.7523 13.8114C20.7188 13.907 20.7181 14.0236 20.7505 14.1357V14.1357Z" fill="#80DDFF" stroke="#45413C" stroke-width="0.280193" stroke-linecap="round" stroke-linejoin="round"/>
<path d="M20.0632 16.4853C20.1203 16.5457 20.2087 16.5717 20.309 16.5577C20.4093 16.5436 20.5133 16.4907 20.598 16.4105C20.6828 16.3304 20.7414 16.2295 20.7609 16.1301C20.7805 16.0307 20.7594 15.941 20.7023 15.8807C20.6452 15.8203 20.5568 15.7943 20.4565 15.8083C20.3562 15.8223 20.2522 15.8752 20.1675 15.9554C20.0827 16.0356 20.0241 16.1365 20.0046 16.2359C19.985 16.3352 20.0061 16.425 20.0632 16.4853V16.4853Z" fill="#80DDFF" stroke="#45413C" stroke-width="0.280193" stroke-linecap="round" stroke-linejoin="round"/>
<path d="M11.204 14.1269C11.2043 13.9758 11.1509 13.8295 11.0532 13.7143C10.9555 13.599 10.82 13.5222 10.6709 13.4977C10.5218 13.4732 10.3689 13.5026 10.2394 13.5805C10.11 13.6585 10.0125 13.78 9.96446 13.9232C9.7997 14.3225 9.33206 14.446 9.13228 13.9002C9.09085 13.7916 9.0205 13.6964 8.92886 13.6249C8.83722 13.5534 8.72777 13.5083 8.61236 13.4945C8.49694 13.4807 8.37995 13.4988 8.27404 13.5467C8.16813 13.5946 8.07733 13.6705 8.01147 13.7663C7.94561 13.8621 7.9072 13.974 7.90038 14.0901C7.89356 14.2061 7.9186 14.3218 7.97279 14.4246C8.02698 14.5275 8.10826 14.6135 8.20783 14.6735C8.3074 14.7335 8.42147 14.7651 8.53771 14.7649L8.84873 15.7428V17.2129C8.84485 17.4177 8.7608 17.6127 8.61464 17.7561C8.46849 17.8995 8.27189 17.9799 8.06713 17.9799C7.86236 17.9799 7.66577 17.8995 7.51961 17.7561C7.37345 17.6127 7.2894 17.4177 7.28553 17.2129C7.28545 16.5329 7.01529 15.8808 6.53445 15.4C6.05362 14.9191 5.40148 14.649 4.72148 14.6489H3.6503C2.97048 14.6493 2.31867 14.9197 1.83813 15.4006C1.35759 15.8814 1.08765 16.5334 1.08765 17.2132V19.253C1.08769 19.542 1.20052 19.8195 1.40211 20.0264C1.6037 20.2334 1.87813 20.3535 2.16695 20.3612V22.5333C2.11126 22.5167 2.05356 22.508 1.99547 22.5072C1.87017 22.5067 1.74745 22.5428 1.64243 22.6111C1.53742 22.6795 1.45471 22.7771 1.4045 22.8919C1.35429 23.0067 1.33877 23.1337 1.35987 23.2572C1.38097 23.3807 1.43775 23.4954 1.52322 23.587C1.60869 23.6786 1.71911 23.7432 1.84086 23.7728C1.96261 23.8025 2.09037 23.7958 2.20838 23.7537C2.32639 23.7116 2.4295 23.6359 2.50499 23.5358C2.58048 23.4358 2.62504 23.3159 2.63319 23.1909H2.6416C2.64874 23.2999 2.68365 23.4053 2.74301 23.497C2.80238 23.5887 2.88422 23.6637 2.98075 23.7148C3.07729 23.7659 3.1853 23.7915 3.29452 23.7891C3.40373 23.7867 3.51052 23.7564 3.60472 23.7011C3.69892 23.6458 3.77739 23.5673 3.83268 23.4731C3.88796 23.3788 3.91822 23.272 3.92057 23.1628C3.92292 23.0536 3.89728 22.9456 3.8461 22.8491C3.79492 22.7526 3.71989 22.6708 3.62816 22.6114V21.0174C3.62816 20.9483 3.64177 20.8799 3.66822 20.816C3.69466 20.7522 3.73342 20.6942 3.78228 20.6453C3.83115 20.5965 3.88915 20.5577 3.953 20.5313C4.01684 20.5048 4.08526 20.4912 4.15436 20.4912C4.22347 20.4912 4.29189 20.5048 4.35573 20.5313C4.41958 20.5577 4.47758 20.5965 4.52645 20.6453C4.57531 20.6942 4.61407 20.7522 4.64051 20.816C4.66696 20.8799 4.68057 20.9483 4.68057 21.0174V22.5512C4.57145 22.593 4.47585 22.6639 4.40409 22.7561C4.33232 22.8483 4.28714 22.9584 4.27341 23.0745C4.25967 23.1905 4.27792 23.3081 4.32618 23.4145C4.37444 23.521 4.45087 23.6122 4.54721 23.6783C4.64355 23.7445 4.75613 23.783 4.87279 23.7898C4.98945 23.7966 5.10575 23.7714 5.20911 23.7169C5.31248 23.6623 5.39897 23.5806 5.45925 23.4805C5.51953 23.3804 5.5513 23.2657 5.55113 23.1488C5.55083 23.2753 5.58786 23.399 5.65758 23.5044C5.72731 23.6099 5.82661 23.6924 5.94305 23.7416C6.05948 23.7908 6.18786 23.8046 6.31209 23.7812C6.43631 23.7577 6.55085 23.6981 6.64133 23.6098C6.73182 23.5216 6.79422 23.4085 6.82072 23.2849C6.84721 23.1613 6.83662 23.0326 6.79027 22.915C6.74392 22.7974 6.66387 22.6961 6.56017 22.6238C6.45647 22.5515 6.33373 22.5114 6.20734 22.5086V17.2129C6.20432 17.4592 6.25022 17.7037 6.34238 17.9321C6.43455 18.1605 6.57114 18.3684 6.74424 18.5436C6.91734 18.7189 7.12351 18.858 7.35078 18.953C7.57806 19.0479 7.82193 19.0968 8.06825 19.0968C8.31456 19.0968 8.55843 19.0479 8.78571 18.953C9.01299 18.858 9.21915 18.7189 9.39225 18.5436C9.56536 18.3684 9.70195 18.1605 9.79411 17.9321C9.88627 17.7037 9.93218 17.4592 9.92915 17.2129V15.7428C10.143 15.4293 10.3328 15.1001 10.4968 14.7579C10.5865 14.7721 10.6781 14.7662 10.7652 14.7406C10.8523 14.7151 10.9326 14.6705 11.0004 14.6101C11.0682 14.5498 11.1217 14.4751 11.1571 14.3915C11.1925 14.308 11.2089 14.2176 11.2052 14.1269H11.204Z" fill="#6DD627"/>
<path d="M7.33176 17.4779C7.30104 17.3929 7.28539 17.3032 7.28553 17.2129C7.28545 16.5328 7.01529 15.8807 6.53445 15.3999C6.05362 14.919 5.40148 14.6489 4.72148 14.6488H3.6503C2.97048 14.6492 2.31867 14.9196 1.83813 15.4005C1.35759 15.8813 1.08765 16.5333 1.08765 17.2131V18.1658C1.09209 17.4888 1.36411 16.841 1.84436 16.3638C2.32461 15.8866 2.97411 15.6187 3.65114 15.6186H4.72232C5.28024 15.6189 5.82284 15.8011 6.26781 16.1377C6.71279 16.4742 7.03586 16.9467 7.18802 17.4835L7.33176 17.4779Z" fill="#9CEB60"/>
<path d="M11.204 14.1269C11.2043 13.9758 11.1509 13.8295 11.0532 13.7143C10.9555 13.599 10.82 13.5222 10.6709 13.4977C10.5218 13.4732 10.3689 13.5026 10.2394 13.5805C10.11 13.6585 10.0125 13.78 9.96446 13.9232C9.7997 14.3225 9.33206 14.446 9.13228 13.9002C9.09085 13.7916 9.0205 13.6964 8.92886 13.6249C8.83722 13.5534 8.72777 13.5083 8.61236 13.4945C8.49694 13.4807 8.37995 13.4988 8.27404 13.5467C8.16813 13.5946 8.07733 13.6705 8.01147 13.7663C7.94561 13.8621 7.9072 13.974 7.90038 14.0901C7.89356 14.2061 7.9186 14.3218 7.97279 14.4246C8.02698 14.5275 8.10826 14.6135 8.20783 14.6735C8.3074 14.7335 8.42147 14.7651 8.53771 14.7649L8.84873 15.7428V17.2129C8.84485 17.4177 8.7608 17.6127 8.61464 17.7561C8.46849 17.8995 8.27189 17.9799 8.06713 17.9799C7.86236 17.9799 7.66577 17.8995 7.51961 17.7561C7.37345 17.6127 7.2894 17.4177 7.28553 17.2129C7.28545 16.5329 7.01529 15.8808 6.53445 15.4C6.05362 14.9191 5.40148 14.649 4.72148 14.6489H3.6503C2.97048 14.6493 2.31867 14.9197 1.83813 15.4006C1.35759 15.8814 1.08765 16.5334 1.08765 17.2132V19.253C1.08769 19.542 1.20052 19.8195 1.40211 20.0264C1.6037 20.2334 1.87813 20.3535 2.16695 20.3612V22.5333C2.11126 22.5167 2.05356 22.508 1.99547 22.5072C1.87017 22.5067 1.74745 22.5428 1.64243 22.6111C1.53742 22.6795 1.45471 22.7771 1.4045 22.8919C1.35429 23.0067 1.33877 23.1337 1.35987 23.2572C1.38097 23.3807 1.43775 23.4954 1.52322 23.587C1.60869 23.6786 1.71911 23.7432 1.84086 23.7728C1.96261 23.8025 2.09037 23.7958 2.20838 23.7537C2.32639 23.7116 2.4295 23.6359 2.50499 23.5358C2.58048 23.4358 2.62504 23.3159 2.63319 23.1909H2.6416C2.64874 23.2999 2.68365 23.4053 2.74301 23.497C2.80238 23.5887 2.88422 23.6637 2.98075 23.7148C3.07729 23.7659 3.1853 23.7915 3.29452 23.7891C3.40373 23.7867 3.51052 23.7564 3.60472 23.7011C3.69892 23.6458 3.77739 23.5673 3.83268 23.4731C3.88796 23.3788 3.91822 23.272 3.92057 23.1628C3.92292 23.0536 3.89728 22.9456 3.8461 22.8491C3.79492 22.7526 3.71989 22.6708 3.62816 22.6114V21.0174C3.62816 20.9483 3.64177 20.8799 3.66822 20.816C3.69466 20.7522 3.73342 20.6942 3.78228 20.6453C3.83115 20.5965 3.88915 20.5577 3.953 20.5313C4.01684 20.5048 4.08526 20.4912 4.15436 20.4912C4.22347 20.4912 4.29189 20.5048 4.35573 20.5313C4.41958 20.5577 4.47758 20.5965 4.52645 20.6453C4.57531 20.6942 4.61407 20.7522 4.64051 20.816C4.66696 20.8799 4.68057 20.9483 4.68057 21.0174V22.5512C4.57145 22.593 4.47585 22.6639 4.40409 22.7561C4.33232 22.8483 4.28714 22.9584 4.27341 23.0745C4.25967 23.1905 4.27792 23.3081 4.32618 23.4145C4.37444 23.521 4.45087 23.6122 4.54721 23.6783C4.64355 23.7445 4.75613 23.783 4.87279 23.7898C4.98945 23.7966 5.10575 23.7714 5.20911 23.7169C5.31248 23.6623 5.39897 23.5806 5.45925 23.4805C5.51953 23.3804 5.5513 23.2657 5.55113 23.1488C5.55083 23.2753 5.58786 23.399 5.65758 23.5044C5.72731 23.6099 5.82661 23.6924 5.94305 23.7416C6.05948 23.7908 6.18786 23.8046 6.31209 23.7812C6.43631 23.7577 6.55085 23.6981 6.64133 23.6098C6.73182 23.5216 6.79422 23.4085 6.82072 23.2849C6.84721 23.1613 6.83662 23.0326 6.79027 22.915C6.74392 22.7974 6.66387 22.6961 6.56017 22.6238C6.45647 22.5515 6.33373 22.5114 6.20734 22.5086V17.2129C6.20432 17.4592 6.25022 17.7037 6.34238 17.9321C6.43455 18.1605 6.57114 18.3684 6.74424 18.5436C6.91734 18.7189 7.12351 18.858 7.35078 18.953C7.57806 19.0479 7.82193 19.0968 8.06825 19.0968C8.31456 19.0968 8.55843 19.0479 8.78571 18.953C9.01299 18.858 9.21915 18.7189 9.39225 18.5436C9.56536 18.3684 9.70195 18.1605 9.79411 17.9321C9.88627 17.7037 9.93218 17.4592 9.92915 17.2129V15.7428C10.143 15.4293 10.3328 15.1001 10.4968 14.7579C10.5865 14.7721 10.6781 14.7662 10.7652 14.7406C10.8523 14.7151 10.9326 14.6705 11.0004 14.6101C11.0682 14.5498 11.1217 14.4751 11.1571 14.3915C11.1925 14.308 11.2089 14.2176 11.2052 14.1269H11.204Z" stroke="#45413C" stroke-width="0.280193" stroke-linecap="round" stroke-linejoin="round"/>
<path d="M7.64274 10.9683C7.64274 12.7529 4.75675 15.0776 4.186 15.0776C3.61524 15.0776 0.729248 12.7529 0.729248 10.9683C0.729248 9.18376 2.27704 7.96436 4.186 7.96436C6.09495 7.96436 7.64274 9.18348 7.64274 10.9683Z" fill="#6DD627"/>
<path d="M4.74468 13.5268C4.59641 13.675 4.39534 13.7583 4.1857 13.7583C3.97605 13.7583 3.77498 13.675 3.62671 13.5268" stroke="#45413C" stroke-width="0.280193" stroke-linecap="round" stroke-linejoin="round"/>
<path d="M2.16565 20.3611V16.7343" stroke="#45413C" stroke-width="0.280193" stroke-linecap="round" stroke-linejoin="round"/>
<path d="M7.58502 11.4267C7.62231 11.2767 7.64169 11.1229 7.64274 10.9683C7.64274 9.18348 6.09495 7.96436 4.186 7.96436C2.27704 7.96436 0.729248 9.18348 0.729248 10.9683C0.730259 11.1227 0.749731 11.2764 0.787248 11.4261C1.07893 9.95765 2.4883 8.9921 4.186 8.9921C5.88369 8.9921 7.29334 9.95765 7.58502 11.4267Z" fill="#9CEB60"/>
<path d="M7.64274 10.9683C7.64274 12.7529 4.75675 15.0776 4.186 15.0776C3.61524 15.0776 0.729248 12.7529 0.729248 10.9683C0.729248 9.18376 2.27704 7.96436 4.186 7.96436C6.09495 7.96436 7.64274 9.18348 7.64274 10.9683Z" stroke="#45413C" stroke-width="0.280193" stroke-linecap="round" stroke-linejoin="round"/>
<path d="M5.14631 12.2069C5.24404 12.2581 5.35353 12.2845 5.46851 12.2846C5.58349 12.2847 5.70173 12.2585 5.81646 12.2075C5.93119 12.1565 6.04018 12.0817 6.13719 11.9875C6.2342 11.8932 6.31734 11.7812 6.38187 11.6579C6.44639 11.5347 6.49104 11.4025 6.51325 11.2691C6.53546 11.1356 6.53481 11.0035 6.51133 10.8801C6.48785 10.7568 6.442 10.6447 6.3764 10.5503C6.3108 10.4559 6.22673 10.3809 6.129 10.3298C6.03127 10.2786 5.92179 10.2522 5.8068 10.2521C5.69182 10.252 5.57358 10.2782 5.45885 10.3292C5.34412 10.3802 5.23514 10.4549 5.13812 10.5492C5.04111 10.6435 4.95797 10.7555 4.89345 10.8787C4.82892 11.002 4.78428 11.1341 4.76207 11.2676C4.73985 11.401 4.74051 11.5332 4.76399 11.6565C4.78747 11.7799 4.83332 11.8919 4.89892 11.9864C4.96451 12.0808 5.04858 12.1558 5.14631 12.2069Z" fill="#656769"/>
<path d="M4.78395 11.1619C4.71819 11.3514 4.71817 11.5576 4.7839 11.7471C4.84962 11.9367 4.97726 12.0986 5.14624 12.2067C5.55701 12.4219 6.11011 12.1762 6.38162 11.6578C6.52633 11.3944 6.5653 11.0857 6.49061 10.7946C6.46683 10.8987 6.43022 10.9995 6.38162 11.0946C6.11039 11.6127 5.55701 11.8587 5.14596 11.6435C5.05537 11.5929 4.97636 11.524 4.91401 11.441C4.85167 11.3581 4.80737 11.263 4.78395 11.1619V11.1619Z" fill="#525252"/>
<path d="M5.14631 12.2069C5.24404 12.2581 5.35353 12.2845 5.46851 12.2846C5.58349 12.2847 5.70173 12.2585 5.81646 12.2075C5.93119 12.1565 6.04018 12.0817 6.13719 11.9875C6.2342 11.8932 6.31734 11.7812 6.38187 11.6579C6.44639 11.5347 6.49104 11.4025 6.51325 11.2691C6.53546 11.1356 6.53481 11.0035 6.51133 10.8801C6.48785 10.7568 6.442 10.6447 6.3764 10.5503C6.3108 10.4559 6.22673 10.3809 6.129 10.3298C6.03127 10.2786 5.92179 10.2522 5.8068 10.2521C5.69182 10.252 5.57358 10.2782 5.45885 10.3292C5.34412 10.3802 5.23514 10.4549 5.13812 10.5492C5.04111 10.6435 4.95797 10.7555 4.89345 10.8787C4.82892 11.002 4.78428 11.1341 4.76207 11.2676C4.73985 11.401 4.74051 11.5332 4.76399 11.6565C4.78747 11.7799 4.83332 11.8919 4.89892 11.9864C4.96451 12.0808 5.04858 12.1558 5.14631 12.2069Z" stroke="#45413C" stroke-width="0.280193" stroke-linecap="round" stroke-linejoin="round"/>
<path d="M1.98939 11.6582C2.05392 11.7815 2.13706 11.8935 2.23407 11.9878C2.33109 12.0821 2.44007 12.1568 2.5548 12.2078C2.66953 12.2588 2.78777 12.285 2.90275 12.2849C3.01773 12.2848 3.12722 12.2584 3.22495 12.2072C3.32268 12.1561 3.40675 12.0811 3.47235 11.9867C3.53794 11.8923 3.58379 11.7802 3.60727 11.6568C3.63076 11.5335 3.63141 11.4013 3.6092 11.2679C3.58698 11.1344 3.54234 11.0023 3.47782 10.8791C3.41329 10.7558 3.33015 10.6438 3.23314 10.5495C3.13612 10.4552 3.02714 10.3805 2.91241 10.3295C2.79767 10.2785 2.67944 10.2523 2.56446 10.2524C2.44947 10.2525 2.33999 10.2789 2.24226 10.3301C2.14453 10.3812 2.06046 10.4562 1.99486 10.5506C1.92926 10.645 1.88341 10.7571 1.85993 10.8805C1.83645 11.0038 1.8358 11.136 1.85801 11.2694C1.88023 11.4029 1.92487 11.535 1.98939 11.6582V11.6582Z" fill="#656769"/>
<path d="M3.58705 11.1619C3.65289 11.3514 3.65297 11.5576 3.5873 11.7471C3.52162 11.9367 3.39401 12.0986 3.22504 12.2067C2.81399 12.4219 2.26089 12.1762 1.98967 11.6578C1.84486 11.3944 1.80579 11.0857 1.88039 10.7946C1.9044 10.8987 1.9411 10.9995 1.98967 11.0946C2.26089 11.6127 2.81399 11.8587 3.22504 11.6435C3.31567 11.593 3.3947 11.524 3.45705 11.4411C3.5194 11.3581 3.56369 11.263 3.58705 11.1619Z" fill="#525252"/>
<path d="M1.98939 11.6582C2.05392 11.7815 2.13706 11.8935 2.23407 11.9878C2.33109 12.0821 2.44007 12.1568 2.5548 12.2078C2.66953 12.2588 2.78777 12.285 2.90275 12.2849C3.01773 12.2848 3.12722 12.2584 3.22495 12.2072C3.32268 12.1561 3.40675 12.0811 3.47235 11.9867C3.53794 11.8923 3.58379 11.7802 3.60727 11.6568C3.63076 11.5335 3.63141 11.4013 3.6092 11.2679C3.58698 11.1344 3.54234 11.0023 3.47782 10.8791C3.41329 10.7558 3.33015 10.6438 3.23314 10.5495C3.13612 10.4552 3.02714 10.3805 2.91241 10.3295C2.79767 10.2785 2.67944 10.2523 2.56446 10.2524C2.44947 10.2525 2.33999 10.2789 2.24226 10.3301C2.14453 10.3812 2.06046 10.4562 1.99486 10.5506C1.92926 10.645 1.88341 10.7571 1.85993 10.8805C1.83645 11.0038 1.8358 11.136 1.85801 11.2694C1.88023 11.4029 1.92487 11.535 1.98939 11.6582V11.6582Z" stroke="#45413C" stroke-width="0.280193" stroke-linecap="round" stroke-linejoin="round"/>
<path d="M9.25661 3.57919C9.25661 3.86555 8.46507 4.04375 8.39446 4.3077C8.32161 4.5806 8.91562 5.13034 8.7772 5.36935C8.63879 5.60835 7.86265 5.37103 7.66595 5.56773C7.46926 5.76442 7.70995 6.53888 7.46758 6.67897C7.22521 6.81907 6.67883 6.22338 6.40593 6.29623C6.14198 6.36684 5.96378 7.15838 5.67742 7.15838C5.39106 7.15838 5.21286 6.36684 4.94892 6.29623C4.67601 6.2231 4.12627 6.81739 3.88727 6.67897C3.64826 6.54056 3.88558 5.76442 3.68889 5.56773C3.49219 5.37103 2.71774 5.61172 2.57764 5.36935C2.43754 5.12698 3.03352 4.5806 2.96039 4.3077C2.88978 4.04375 2.09851 3.86555 2.09851 3.57919C2.09851 3.29283 2.89006 3.11491 2.96039 2.85069C3.03352 2.57778 2.43923 2.02804 2.57764 1.78904C2.71606 1.55003 3.49219 1.78735 3.68889 1.59066C3.88558 1.39396 3.6449 0.619508 3.88727 0.479131C4.12963 0.338754 4.67601 0.935006 4.94892 0.862155C5.21286 0.791547 5.39134 0 5.67742 0C5.9635 0 6.1417 0.791547 6.40593 0.862155C6.67911 0.935006 7.22857 0.340995 7.46786 0.479411C7.70714 0.617827 7.46786 1.39396 7.66595 1.59066C7.86405 1.78735 8.63711 1.54667 8.77748 1.78904C8.91786 2.0314 8.32161 2.57778 8.39446 2.85069C8.46507 3.11491 9.25661 3.29424 9.25661 3.57919Z" fill="#FFE500"/>
<path d="M3.96411 3.06576C3.96411 3.17099 4.00591 3.2719 4.08032 3.34631C4.15472 3.42071 4.25564 3.46251 4.36087 3.46251C4.46609 3.46251 4.56701 3.42071 4.64141 3.34631C4.71582 3.2719 4.75762 3.17099 4.75762 3.06576C4.75762 2.96053 4.71582 2.85962 4.64141 2.78521C4.56701 2.71081 4.46609 2.66901 4.36087 2.66901C4.25564 2.66901 4.15472 2.71081 4.08032 2.78521C4.00591 2.85962 3.96411 2.96053 3.96411 3.06576V3.06576Z" fill="#45413C"/>
<path d="M6.59717 3.06576C6.59717 3.17099 6.63897 3.2719 6.71337 3.34631C6.78778 3.42071 6.8887 3.46251 6.99392 3.46251C7.09915 3.46251 7.20006 3.42071 7.27447 3.34631C7.34888 3.2719 7.39068 3.17099 7.39068 3.06576C7.39068 2.96053 7.34888 2.85962 7.27447 2.78521C7.20006 2.71081 7.09915 2.66901 6.99392 2.66901C6.8887 2.66901 6.78778 2.71081 6.71337 2.78521C6.63897 2.85962 6.59717 2.96053 6.59717 3.06576V3.06576Z" fill="#45413C"/>
<path d="M2.8837 4.61261C2.74361 4.88272 2.48079 5.20102 2.57773 5.36913C2.71783 5.6115 3.49228 5.36913 3.68898 5.56751C3.88568 5.76589 3.64471 6.53838 3.88736 6.67876C4.13 6.81913 4.6761 6.22288 4.94901 6.29601C5.21295 6.36662 5.39144 7.15817 5.67751 7.15817C5.96359 7.15817 6.14179 6.36662 6.40602 6.29601C6.67892 6.22316 7.22866 6.81717 7.46767 6.67876C7.70667 6.54034 7.46935 5.76421 7.66605 5.56751C7.86274 5.37081 8.6372 5.61178 8.77729 5.36913C8.87424 5.20102 8.61254 4.88272 8.47132 4.61261C7.71782 5.3294 6.71763 5.72914 5.67765 5.72914C4.63768 5.72914 3.63749 5.3294 2.88398 4.61261H2.8837Z" fill="#EBCB00"/>
<path d="M9.25661 3.57919C9.25661 3.86555 8.46507 4.04375 8.39446 4.3077C8.32161 4.5806 8.91562 5.13034 8.7772 5.36935C8.63879 5.60835 7.86265 5.37103 7.66595 5.56773C7.46926 5.76442 7.70995 6.53888 7.46758 6.67897C7.22521 6.81907 6.67883 6.22338 6.40593 6.29623C6.14198 6.36684 5.96378 7.15838 5.67742 7.15838C5.39106 7.15838 5.21286 6.36684 4.94892 6.29623C4.67601 6.2231 4.12627 6.81739 3.88727 6.67897C3.64826 6.54056 3.88558 5.76442 3.68889 5.56773C3.49219 5.37103 2.71774 5.61172 2.57764 5.36935C2.43754 5.12698 3.03352 4.5806 2.96039 4.3077C2.88978 4.04375 2.09851 3.86555 2.09851 3.57919C2.09851 3.29283 2.89006 3.11491 2.96039 2.85069C3.03352 2.57778 2.43923 2.02804 2.57764 1.78904C2.71606 1.55003 3.49219 1.78735 3.68889 1.59066C3.88558 1.39396 3.6449 0.619508 3.88727 0.479131C4.12963 0.338754 4.67601 0.935006 4.94892 0.862155C5.21286 0.791547 5.39134 0 5.67742 0C5.9635 0 6.1417 0.791547 6.40593 0.862155C6.67911 0.935006 7.22857 0.340995 7.46786 0.479411C7.70714 0.617827 7.46786 1.39396 7.66595 1.59066C7.86405 1.78735 8.63711 1.54667 8.77748 1.78904C8.91786 2.0314 8.32161 2.57778 8.39446 2.85069C8.46507 3.11491 9.25661 3.29424 9.25661 3.57919Z" stroke="#45413C" stroke-width="0.280193" stroke-linecap="round" stroke-linejoin="round"/>
<path d="M5.67772 4.85662C5.87925 4.86093 6.07554 4.79218 6.23035 4.66307C6.38516 4.53396 6.48803 4.35321 6.51998 4.15417C6.5215 4.14222 6.52007 4.13007 6.51582 4.11879C6.51157 4.10751 6.50463 4.09743 6.4956 4.08945C6.48628 4.08107 6.4752 4.07489 6.46318 4.07135C6.45115 4.06781 6.43849 4.06701 6.42611 4.06899C5.93026 4.14857 5.42489 4.14857 4.92904 4.06899C4.91667 4.06701 4.904 4.06781 4.89198 4.07135C4.87996 4.07489 4.86888 4.08107 4.85955 4.08945C4.85057 4.09746 4.84369 4.10755 4.83949 4.11883C4.83529 4.13011 4.8339 4.14224 4.83546 4.15417C4.86741 4.35321 4.97028 4.53396 5.12509 4.66307C5.2799 4.79218 5.47618 4.86093 5.67772 4.85662V4.85662Z" fill="#FFB0CA" stroke="#45413C" stroke-width="0.280193" stroke-linecap="round" stroke-linejoin="round"/>
<path d="M15.4503 7.68824C15.4978 7.38912 15.4798 7.08326 15.3977 6.79174C15.3156 6.50022 15.1712 6.22998 14.9746 5.99964C14.7779 5.7693 14.5337 5.58434 14.2586 5.45752C13.9836 5.33069 13.6843 5.26501 13.3815 5.26501C13.0786 5.26501 12.7793 5.33069 12.5043 5.45752C12.2293 5.58434 11.985 5.7693 11.7884 5.99964C11.5917 6.22998 11.4473 6.50022 11.3652 6.79174C11.2831 7.08326 11.2652 7.38912 11.3127 7.68824C11.3869 7.1927 11.6366 6.74029 12.0163 6.41329C12.396 6.0863 12.8804 5.90644 13.3815 5.90644C13.8825 5.90644 14.367 6.0863 14.7466 6.41329C15.1263 6.74029 15.376 7.1927 15.4503 7.68824V7.68824Z" fill="white"/>
<path d="M11.2869 7.35773C11.2869 7.91328 11.5076 8.44609 11.9004 8.83892C12.2932 9.23176 12.826 9.45245 13.3816 9.45245C13.9371 9.45245 14.47 9.23176 14.8628 8.83892C15.2556 8.44609 15.4763 7.91328 15.4763 7.35773C15.4763 6.80217 15.2556 6.26937 14.8628 5.87653C14.47 5.48369 13.9371 5.263 13.3816 5.263C12.826 5.263 12.2932 5.48369 11.9004 5.87653C11.5076 6.26937 11.2869 6.80217 11.2869 7.35773V7.35773Z" stroke="#45413C" stroke-width="0.280193" stroke-linecap="round" stroke-linejoin="round"/>
</svg>
