<svg width="18" height="23" viewBox="0 0 18 23" fill="none" xmlns="http://www.w3.org/2000/svg">
<path d="M2.95215 18.9678L3.16211 19.0264L5.44629 19.6602L5.67773 19.7236L5.67969 19.7148C6.07261 19.8348 6.45631 19.9836 6.82617 20.1631L6.8916 20.1943C6.76848 20.4455 6.65367 20.6882 6.53906 20.916C6.26969 21.4516 6.03294 21.8999 5.83594 22.2275C5.73725 22.3916 5.65114 22.521 5.5791 22.6133C5.54331 22.6591 5.5134 22.6934 5.48926 22.7168C5.46855 22.7368 5.45677 22.7444 5.4541 22.7461C5.46709 22.7396 5.46299 22.745 5.42383 22.748C5.38824 22.7508 5.33797 22.7512 5.27246 22.7461C5.14168 22.7359 4.97018 22.7075 4.76758 22.6641C4.3635 22.5775 3.85904 22.4336 3.35742 22.2617C2.85551 22.0897 2.3639 21.8922 1.9834 21.7031C1.79269 21.6084 1.63517 21.5184 1.52051 21.4375C1.4635 21.3973 1.42058 21.3617 1.39062 21.332C1.37948 21.321 1.37077 21.3116 1.36426 21.3037C1.34213 21.1291 1.35291 20.9518 1.39746 20.7812L1.40039 20.7705L1.40234 20.7598C1.44515 20.5099 1.59592 19.7482 1.82617 18.6748L2.95215 18.9678ZM2.37891 19.708C2.32585 19.6988 2.23898 19.6871 2.15332 19.7158C2.06696 19.7449 2.01481 19.8011 1.9834 19.8535L1.95801 19.9033C1.92787 19.9769 1.91686 20.0747 1.9668 20.1738C2.00577 20.251 2.06916 20.301 2.11035 20.3301C2.19399 20.3892 2.33603 20.4628 2.51172 20.5586H2.5127C3.34169 21.0064 4.24572 21.2971 5.17969 21.415V21.4141C5.38584 21.4494 5.54078 21.4758 5.64258 21.4775C5.68834 21.4783 5.77858 21.4777 5.86035 21.4268C5.97495 21.3552 6 21.2399 6 21.167C5.99999 21.119 5.99195 21.0339 5.92188 20.9541C5.87418 20.8999 5.81103 20.8656 5.76855 20.8438C5.67462 20.7955 5.49622 20.7183 5.19629 20.582L5.18652 20.5781L5.17578 20.5742L3.9082 20.1543C3.66593 20.0761 3.43639 20.0029 3.26367 19.9492C3.17762 19.9225 3.10455 19.9005 3.05078 19.8848C3.02411 19.877 3.00017 19.8701 2.98145 19.8652C2.97231 19.8628 2.96189 19.8605 2.95215 19.8584C2.95162 19.8583 2.95029 19.8579 2.94824 19.8574C2.6746 19.781 2.49174 19.7276 2.37891 19.708ZM2.17188 3.89453C4.51802 1.05839 8.94789 -0.0690442 12.1279 1.0957L12.1318 1.09766C13.8562 1.69238 15.3072 2.89647 16.2139 4.48633V4.48535C17.1152 6.07878 17.5018 7.91457 17.3203 9.73828C17.2034 10.5325 16.6839 11.7946 15.9746 12.9629C15.6222 13.5433 15.2283 14.0917 14.8232 14.54C14.4155 14.9914 14.008 15.3276 13.6328 15.501C12.1363 16.1867 10.5035 16.5193 8.85938 16.4736H8.85254C8.76775 16.4736 8.64661 16.4729 8.53711 16.4951C8.4259 16.5177 8.27192 16.5751 8.18555 16.7354L8.18066 16.7441C7.88502 17.3483 7.347 18.5041 6.81543 19.6084C6.56102 19.4942 6.3015 19.3921 6.03711 19.3037C6.71468 17.5215 8.46252 14.3718 9.38867 12.6846C10.1893 12.7268 10.9888 12.5768 11.7197 12.2422L11.7266 12.2393L11.7324 12.2363C11.975 12.1081 12.1766 11.9126 12.3125 11.6738C12.4481 11.4353 12.5129 11.1629 12.5 10.8887C12.487 10.6141 12.3961 10.3488 12.2383 10.124C12.0835 9.90356 11.8705 9.73122 11.623 9.62598H11.624C11.0798 9.3579 10.5756 9.56543 10.1904 9.89746C9.81048 10.2251 9.49766 10.7088 9.27441 11.1318C9.176 11.3116 9.0669 11.5173 8.94727 11.7441C8.74533 11.7235 8.54571 11.6885 8.34863 11.6406C8.62111 11.4058 8.87013 11.1445 9.08887 10.8574L9.09473 10.8506L9.09863 10.8428C9.29756 10.5409 9.39894 10.1849 9.3877 9.82324C9.37644 9.46159 9.25348 9.11207 9.03613 8.82324L9.02637 8.81152L8.95312 8.7334C8.77525 8.56045 8.54622 8.44749 8.29883 8.41309C8.01619 8.37387 7.72888 8.43952 7.49121 8.59766C7.2124 8.77109 6.97163 8.9967 6.7793 9.25977C6.78546 9.1131 6.78011 8.96559 6.7627 8.81934V8.8125L6.76074 8.80566L6.73828 8.70117C6.67724 8.46001 6.55664 8.2376 6.38672 8.05469C6.19244 7.84563 5.9415 7.69658 5.66504 7.62695C4.8959 7.41116 4.23176 7.73914 3.80371 8.28613C3.38094 8.8265 3.17084 9.59546 3.27148 10.3369V10.3379C3.33058 10.8777 3.56147 11.3841 3.92969 11.7822C4.23203 12.1091 4.6145 12.3466 5.03613 12.4766C4.37888 14.341 3.43569 17.0733 2.90332 18.4385L2.16309 18.2461C2.51359 16.4883 2.71274 15.6126 2.8125 15.1709C2.86206 14.9515 2.89316 14.8156 2.90039 14.7363C2.90341 14.7032 2.91172 14.6096 2.85449 14.5225C2.83373 14.4908 2.80865 14.4693 2.78711 14.4531C1.67984 13.0234 0.945712 11.3404 0.649414 9.55664L0.595703 9.19531C0.473345 8.2507 0.550106 7.29067 0.821289 6.37793C1.09254 5.46507 1.5522 4.61998 2.16992 3.89746L2.17188 3.89453ZM7.31738 12.29C7.6806 12.455 8.06329 12.5706 8.45605 12.6348C7.5504 14.3338 5.98085 17.3228 5.35352 19.1143L3.56348 18.6182C4.12339 17.2152 5.1672 14.4755 5.81738 12.6143C6.33485 12.6156 6.84592 12.5052 7.31738 12.29ZM9.43164 12.0283L9.43066 12.1865C9.38119 12.1841 9.33169 12.1818 9.28223 12.1777L9.31055 12.126C9.33325 12.0828 9.356 12.0406 9.37793 11.999L9.43164 12.0283ZM10.8936 10.4697C11.0209 10.3988 11.1163 10.3968 11.207 10.4424L11.2168 10.4463L11.2256 10.4502C11.3297 10.4924 11.4206 10.5629 11.4883 10.6533C11.5528 10.7396 11.5929 10.8412 11.6064 10.9482C11.5968 11.25 11.3684 11.4687 10.916 11.6162C10.6052 11.7175 10.2356 11.7641 9.88574 11.7822C10.0486 11.4883 10.2396 11.1587 10.4512 10.8896C10.607 10.6915 10.7567 10.546 10.8936 10.4697ZM6.32227 11.1719C6.36232 11.3206 6.42455 11.4613 6.50684 11.5898C6.39624 11.6191 6.28436 11.641 6.1709 11.6553C6.21962 11.5037 6.27089 11.3396 6.32227 11.1719ZM5.26367 8.49414L5.40918 8.52246C5.6681 8.59341 5.7821 8.71715 5.83789 8.86621C5.90111 9.03527 5.90274 9.27249 5.84961 9.58398C5.76541 9.99758 5.47693 10.9924 5.2793 11.6133C5.01837 11.5343 4.77954 11.3909 4.58789 11.1924C4.3429 10.9385 4.18751 10.6103 4.14551 10.2588L4.14453 10.2539C4.07736 9.77092 4.20013 9.26182 4.44434 8.91504C4.65293 8.61899 4.93321 8.45742 5.26367 8.49414ZM8.2002 9.37402C8.26862 9.40621 8.36284 9.51009 8.40332 9.71582C8.44469 9.92637 8.4091 10.1618 8.29102 10.334C8.02909 10.6817 7.71125 10.9817 7.35059 11.2227C7.29433 11.1684 7.24702 11.1052 7.21387 11.0332C7.17675 10.9524 7.15749 10.8645 7.15625 10.7764L7.17676 10.6533C7.2286 10.3345 7.34722 10.0304 7.52539 9.76172L7.53027 9.75488L7.53418 9.74805C7.605 9.62593 7.70803 9.52589 7.83203 9.45996C7.94544 9.39971 8.07247 9.37116 8.2002 9.37402Z" stroke="#2563EB" stroke-width="0.5"/>
</svg>
