<svg width="15" height="19" viewBox="0 0 15 19" fill="none" xmlns="http://www.w3.org/2000/svg">
<path d="M3.77425 5.92471C3.73543 6.90221 4.03888 7.86369 4.63522 8.65271C4.68466 8.71604 4.7568 8.7591 4.83738 8.77337C4.91797 8.78765 5.00114 8.77211 5.07049 8.72983C5.60344 8.40695 6.83863 7.39351 7.45474 4.70039C7.78245 3.34566 7.83624 1.94217 7.61314 0.567587C7.60231 0.507652 7.60946 0.445963 7.63373 0.389853C7.65801 0.333742 7.69838 0.285569 7.75006 0.251059C7.80174 0.216549 7.86255 0.197152 7.92527 0.195175C7.98798 0.193198 8.04997 0.208724 8.10385 0.239907C10.0993 1.39085 11.7556 3.02067 12.913 4.97238C14.0705 6.92409 14.6902 9.13194 14.7124 11.3833C14.8061 15.3778 11.5527 18.7945 7.43197 18.7817C5.5105 18.7757 3.66982 18.0314 2.3133 16.7118C0.956778 15.3922 0.195059 13.6049 0.195068 11.7417C0.194738 8.84439 1.54774 6.73591 3.27166 5.64791C3.32197 5.61796 3.37965 5.60165 3.43868 5.60068C3.4977 5.59971 3.55592 5.61411 3.60725 5.64238C3.65858 5.67066 3.70116 5.71176 3.73053 5.76142C3.7599 5.81108 3.775 5.86747 3.77425 5.92471Z" fill="#FF866E" stroke="#FF6242" stroke-width="0.390003" stroke-linecap="round" stroke-linejoin="round"/>
<path d="M0.289874 10.4461C0.225941 10.8749 0.194177 11.3078 0.194834 11.7411C0.194824 13.6043 0.956544 15.3916 2.31307 16.7112C3.66959 18.0308 5.51027 18.7752 7.43173 18.7811C11.5524 18.7939 14.8059 15.3773 14.7122 11.3827C14.7023 10.9671 14.6762 10.5644 14.634 10.1744C14.139 13.6406 11.1409 16.4099 7.43173 16.3984C5.70617 16.3919 4.03946 15.7894 2.7307 14.6989C1.42194 13.6083 0.556797 12.1012 0.290535 10.448" fill="#FF6242"/>
<path d="M3.77425 5.92471C3.73543 6.90221 4.03888 7.86369 4.63522 8.65271C4.68466 8.71604 4.7568 8.7591 4.83738 8.77337C4.91797 8.78765 5.00114 8.77211 5.07049 8.72983C5.60344 8.40695 6.83863 7.39351 7.45474 4.70039C7.78245 3.34566 7.83624 1.94217 7.61314 0.567587C7.60231 0.507652 7.60946 0.445963 7.63373 0.389853C7.65801 0.333742 7.69838 0.285569 7.75006 0.251059C7.80174 0.216549 7.86255 0.197152 7.92527 0.195175C7.98798 0.193198 8.04997 0.208724 8.10385 0.239907C10.0993 1.39085 11.7556 3.02067 12.913 4.97238C14.0705 6.92409 14.6902 9.13194 14.7124 11.3833C14.8061 15.3778 11.5527 18.7945 7.43197 18.7817C5.5105 18.7757 3.66982 18.0314 2.3133 16.7118C0.956778 15.3922 0.195059 13.6049 0.195068 11.7417C0.194738 8.84439 1.54774 6.73591 3.27166 5.64791C3.32197 5.61796 3.37965 5.60165 3.43868 5.60068C3.4977 5.59971 3.55592 5.61411 3.60725 5.64238C3.65858 5.67066 3.70116 5.71176 3.73053 5.76142C3.7599 5.81108 3.775 5.86747 3.77425 5.92471Z" stroke="#45413C" stroke-width="0.390003" stroke-linecap="round" stroke-linejoin="round"/>
<path d="M9.73914 10.4387C9.6857 10.4167 9.62721 10.4087 9.56957 10.4156C9.51194 10.4225 9.45721 10.4441 9.41091 10.4781C9.36461 10.5121 9.32838 10.5573 9.30588 10.6092C9.28338 10.6611 9.2754 10.7179 9.28275 10.7737C9.3197 11.0151 9.33384 11.2592 9.32499 11.503C9.26823 13.0985 8.24127 14.0729 7.0899 14.0342C6.74487 14.0276 6.40901 13.9253 6.12196 13.7396C5.83491 13.5538 5.60866 13.2923 5.46993 12.9859C5.44109 12.923 5.39214 12.8709 5.33032 12.8371C5.2685 12.8034 5.19711 12.7899 5.12674 12.7985C5.05637 12.8072 4.99076 12.8377 4.93964 12.8854C4.88852 12.9331 4.85461 12.9955 4.84293 13.0633C4.75004 13.5387 4.75933 14.0276 4.8702 14.4994C4.98108 14.9712 5.19116 15.4157 5.48731 15.8052C5.78346 16.1946 6.1593 16.5206 6.59132 16.7628C7.02333 17.0049 7.50224 17.158 7.99806 17.2124C8.87385 17.3105 9.75651 17.0962 10.4813 16.6094C11.206 16.1227 11.7233 15.3968 11.9366 14.5673C12.1499 13.7378 12.0446 12.8614 11.6404 12.1016C11.2361 11.3419 10.5606 10.7508 9.7398 10.4387H9.73914Z" fill="#FFE500"/>
<path d="M4.81246 13.24C4.76297 13.597 4.76931 13.9591 4.83127 14.3143C4.9808 15.2367 5.50209 16.0638 6.28048 16.6135C7.05886 17.1632 8.03057 17.3906 8.98184 17.2456C9.93311 17.1006 10.786 16.5951 11.3529 15.8403C11.9199 15.0855 12.1543 14.1433 12.0048 13.2208C11.8859 14.0621 11.4575 14.8333 10.7984 15.3924C10.1393 15.9515 9.29406 16.2607 8.4184 16.263C7.54274 16.2654 6.69573 15.9607 6.03348 15.4051C5.37124 14.8496 4.9384 14.0806 4.81477 13.24" fill="#EBCB00"/>
<path d="M9.73914 10.4387C9.6857 10.4167 9.62721 10.4087 9.56957 10.4156C9.51194 10.4225 9.45721 10.4441 9.41091 10.4781C9.36461 10.5121 9.32838 10.5573 9.30588 10.6092C9.28338 10.6611 9.2754 10.7179 9.28275 10.7737C9.3197 11.0151 9.33384 11.2592 9.32499 11.503C9.26823 13.0985 8.24127 14.0729 7.0899 14.0342C6.74487 14.0276 6.40901 13.9253 6.12196 13.7396C5.83491 13.5538 5.60866 13.2923 5.46993 12.9859C5.44109 12.923 5.39214 12.8709 5.33032 12.8371C5.2685 12.8034 5.19711 12.7899 5.12674 12.7985C5.05637 12.8072 4.99076 12.8377 4.93964 12.8854C4.88852 12.9331 4.85461 12.9955 4.84293 13.0633C4.75004 13.5387 4.75933 14.0276 4.8702 14.4994C4.98108 14.9712 5.19116 15.4157 5.48731 15.8052C5.78346 16.1946 6.1593 16.5206 6.59132 16.7628C7.02333 17.0049 7.50224 17.158 7.99806 17.2124C8.87385 17.3105 9.75651 17.0962 10.4813 16.6094C11.206 16.1227 11.7233 15.3968 11.9366 14.5673C12.1499 13.7378 12.0446 12.8614 11.6404 12.1016C11.2361 11.3419 10.5606 10.7508 9.7398 10.4387H9.73914Z" stroke="#E04122" stroke-width="0.390003" stroke-linecap="round" stroke-linejoin="round"/>
</svg>
